<svg width="54" height="54" viewBox="0 0 54 54" fill="none" xmlns="http://www.w3.org/2000/svg">
<path d="M12.2658 36.1728C13.1032 37.0101 14.2336 37.4707 15.4478 37.4707H24.7845H29.1807H38.5174C39.7316 37.4707 40.8621 37.0101 41.6994 36.1728C42.5787 35.2935 43.0392 34.1212 42.9974 32.907C42.9555 31.651 42.4531 30.5205 41.532 29.6831L40.4853 28.762C40.0666 28.3852 39.8572 27.8409 39.8572 27.2966V22.1886C39.8572 19.0485 38.643 15.8665 36.5915 13.3962C34.1631 10.5491 30.8973 9 27.2966 9C27.171 9 27.0873 9 27.0035 9.04187C26.8779 9 26.7523 9 26.6686 9C23.0679 9 19.7603 10.5491 17.4156 13.3543C15.3222 15.8246 14.1499 19.0066 14.1499 22.1468V27.2547C14.1499 27.799 13.8987 28.3433 13.5218 28.7201L12.4751 29.6413C11.554 30.4786 11.0516 31.6091 11.0097 32.8651C10.926 34.1212 11.3865 35.2935 12.2658 36.1728ZM14.108 31.5253L15.1547 30.6042C16.0758 29.7669 16.6201 28.5527 16.6201 27.2966V22.1886C16.6201 15.6153 21.8537 11.554 26.6686 11.554C26.7942 11.554 26.8779 11.554 26.9617 11.5121C27.0454 11.554 27.171 11.554 27.2548 11.554C32.0697 11.554 37.3032 15.6153 37.3032 22.1886V27.2966C37.3032 28.5527 37.8475 29.7669 38.7686 30.6042L39.8154 31.5253C40.234 31.9022 40.4434 32.4046 40.4434 32.9489C40.4434 33.4932 40.234 33.9956 39.8572 34.4143C39.5223 34.7492 39.0199 34.9586 38.4756 34.9586H29.1807H24.7426H15.4478C14.9035 34.9586 14.4011 34.7492 14.0661 34.3724C13.6893 33.9956 13.48 33.4513 13.48 32.907C13.48 32.3627 13.6893 31.8603 14.108 31.5253Z" fill="#A8A8A8"/>
<path d="M30.1015 39.3552C30.1015 41.0718 28.678 42.4953 26.9614 42.4953C25.2447 42.4953 23.8212 41.0718 23.8212 39.3552C23.8212 38.6434 23.2769 38.0991 22.5651 38.0991C21.8534 38.0991 21.3091 38.6434 21.3091 39.3552C21.3091 42.4535 23.8631 45.0075 26.9614 45.0075C30.0596 45.0075 32.6136 42.4535 32.6136 39.3552C32.6136 38.6434 32.0693 38.0991 31.3576 38.0991C30.6458 38.0991 30.1015 38.6434 30.1015 39.3552Z" fill="#A8A8A8"/>
</svg>
