<svg width="22" height="22" viewBox="0 0 22 22" fill="none" xmlns="http://www.w3.org/2000/svg">
<g clip-path="url(#clip0_157_1886)">
<path fill-rule="evenodd" clip-rule="evenodd" d="M14.6666 2.75C15.1292 2.74985 15.5746 2.92454 15.9138 3.23904C16.2529 3.55354 16.4607 3.98461 16.4954 4.44583L16.5 4.58333V17.4167C16.5001 17.8792 16.3254 18.3247 16.0109 18.6638C15.6964 19.003 15.2654 19.2107 14.8041 19.2454L14.6666 19.25H5.49996C5.03743 19.2501 4.59194 19.0755 4.25279 18.761C3.91364 18.4465 3.7059 18.0154 3.67121 17.5542L3.66663 17.4167V4.58333C3.66648 4.12081 3.84117 3.67531 4.15566 3.33616C4.47016 2.99701 4.90123 2.78927 5.36246 2.75458L5.49996 2.75H14.6666ZM10.0833 11.9167C9.31238 11.9167 8.48829 12.0423 7.82004 12.3393C7.18388 12.6225 6.41663 13.2037 6.41663 14.2083C6.41573 14.4417 6.5039 14.6667 6.66314 14.8373C6.82238 15.0079 7.0407 15.1114 7.27359 15.1266C7.50648 15.1418 7.7364 15.0675 7.91646 14.9191C8.09653 14.7706 8.21318 14.559 8.24263 14.3275L8.24996 14.2221L8.29579 14.1753C8.37757 14.1094 8.46831 14.0554 8.56529 14.0149C8.92829 13.8536 9.47829 13.75 10.0833 13.75C10.6874 13.75 11.2383 13.8536 11.6013 14.0149C11.7021 14.0598 11.7755 14.1038 11.8268 14.1405L11.8699 14.1753L11.9166 14.2221C11.9184 14.4652 12.0168 14.6976 12.19 14.8683C12.3632 15.0389 12.5971 15.1337 12.8402 15.1319C13.0833 15.1301 13.3157 15.0317 13.4863 14.8585C13.657 14.6853 13.7518 14.4514 13.75 14.2083C13.75 13.2037 12.9827 12.6225 12.3465 12.3393C11.6783 12.0423 10.8533 11.9167 10.0833 11.9167ZM10.0833 7.33333C9.59706 7.33333 9.13075 7.52649 8.78693 7.8703C8.44311 8.21412 8.24996 8.68044 8.24996 9.16667C8.24996 9.6529 8.44311 10.1192 8.78693 10.463C9.13075 10.8068 9.59706 11 10.0833 11C10.5695 11 11.0358 10.8068 11.3797 10.463C11.7235 10.1192 11.9166 9.6529 11.9166 9.16667C11.9166 8.68044 11.7235 8.21412 11.3797 7.8703C11.0358 7.52649 10.5695 7.33333 10.0833 7.33333ZM18.3095 17.4744L17.4166 17.7714V4.22858L18.3095 4.52558C18.5833 4.61679 18.8215 4.79185 18.9903 5.02597C19.1591 5.26008 19.2499 5.54138 19.25 5.83V16.17C19.2499 16.4586 19.1591 16.7399 18.9903 16.974C18.8215 17.2082 18.5833 17.3832 18.3095 17.4744Z" fill="#868AA5"/>
</g>
<defs>
<clipPath id="clip0_157_1886">
<rect width="22" height="22" fill="white"/>
</clipPath>
</defs>
</svg>
