<svg width="32" height="32" viewBox="0 0 32 32" fill="none" xmlns="http://www.w3.org/2000/svg">
<g clip-path="url(#clip0_176_646)">
<path d="M26.6667 7C27.0203 7 27.3594 7.14048 27.6095 7.39052C27.8595 7.64057 28 7.97971 28 8.33333C28 8.68695 27.8595 9.02609 27.6095 9.27614C27.3594 9.52619 27.0203 9.66667 26.6667 9.66667H25.3333L25.3293 9.76133L24.0853 27.1893C24.0374 27.8621 23.7364 28.4917 23.2428 28.9514C22.7492 29.4111 22.0998 29.6667 21.4253 29.6667H10.5733C9.89885 29.6667 9.24942 29.4111 8.75585 28.9514C8.26227 28.4917 7.96122 27.8621 7.91333 27.1893L6.66933 9.76267C6.66731 9.73071 6.66642 9.69869 6.66667 9.66667H5.33333C4.97971 9.66667 4.64057 9.52619 4.39052 9.27614C4.14048 9.02609 4 8.68695 4 8.33333C4 7.97971 4.14048 7.64057 4.39052 7.39052C4.64057 7.14048 4.97971 7 5.33333 7H26.6667ZM22.6627 9.66667H9.33733L10.5747 27H21.4253L22.6627 9.66667ZM18.6667 3C19.0203 3 19.3594 3.14048 19.6095 3.39052C19.8595 3.64057 20 3.97971 20 4.33333C20 4.68696 19.8595 5.02609 19.6095 5.27614C19.3594 5.52619 19.0203 5.66667 18.6667 5.66667H13.3333C12.9797 5.66667 12.6406 5.52619 12.3905 5.27614C12.1405 5.02609 12 4.68696 12 4.33333C12 3.97971 12.1405 3.64057 12.3905 3.39052C12.6406 3.14048 12.9797 3 13.3333 3H18.6667Z" fill="#FF5656"/>
</g>
<defs>
<clipPath id="clip0_176_646">
<rect width="32" height="32" fill="white"/>
</clipPath>
</defs>
</svg>
