<svg width="50" height="50" viewBox="0 0 50 50" fill="none" xmlns="http://www.w3.org/2000/svg">
<g clip-path="url(#clip0_192_6332)">
<path d="M41.6667 10.417C42.2192 10.417 42.7491 10.6365 43.1398 11.0272C43.5305 11.4179 43.75 11.9478 43.75 12.5003C43.75 13.0529 43.5305 13.5828 43.1398 13.9735C42.7491 14.3642 42.2192 14.5837 41.6667 14.5837H39.5833L39.5771 14.7316L37.6333 41.9628C37.5585 43.014 37.0881 43.9979 36.3169 44.7161C35.5457 45.4344 34.531 45.8337 33.4771 45.8337H16.5208C15.467 45.8337 14.4522 45.4344 13.681 44.7161C12.9098 43.9979 12.4394 43.014 12.3646 41.9628L10.4208 14.7337C10.4177 14.6837 10.4163 14.6337 10.4167 14.5837H8.33333C7.7808 14.5837 7.25089 14.3642 6.86019 13.9735C6.46949 13.5828 6.25 13.0529 6.25 12.5003C6.25 11.9478 6.46949 11.4179 6.86019 11.0272C7.25089 10.6365 7.7808 10.417 8.33333 10.417H41.6667ZM35.4104 14.5837H14.5896L16.5229 41.667H33.4771L35.4104 14.5837ZM29.1667 4.16699C29.7192 4.16699 30.2491 4.38649 30.6398 4.77719C31.0305 5.16789 31.25 5.69779 31.25 6.25033C31.25 6.80286 31.0305 7.33276 30.6398 7.72346C30.2491 8.11417 29.7192 8.33366 29.1667 8.33366H20.8333C20.2808 8.33366 19.7509 8.11417 19.3602 7.72346C18.9695 7.33276 18.75 6.80286 18.75 6.25033C18.75 5.69779 18.9695 5.16789 19.3602 4.77719C19.7509 4.38649 20.2808 4.16699 20.8333 4.16699H29.1667Z" fill="#B3B4BA"/>
</g>
<defs>
<clipPath id="clip0_192_6332">
<rect width="50" height="50" fill="white"/>
</clipPath>
</defs>
</svg>
