<svg width="32" height="32" viewBox="0 0 32 32" fill="none" xmlns="http://www.w3.org/2000/svg">
<path d="M15.9925 22.399C14.3037 22.399 12.9299 21.2735 12.9299 19.8875H9.5885C9.5885 22.3111 11.6014 24.3559 14.3293 24.9579V26.994H17.6703V24.9543C20.3896 24.3476 22.395 22.306 22.3961 19.8875C22.3961 16.9975 19.5302 14.6428 16.0075 14.6373V14.6247C14.3179 14.6247 12.9441 13.4971 12.9441 12.1136C12.9441 10.7283 14.3179 9.60162 16.0075 9.60162C17.6963 9.60162 19.0698 10.7283 19.0698 12.1136H22.4115C22.4115 9.68874 20.3971 7.64454 17.6703 7.04316V5.00586H14.3293V7.04651C11.61 7.65242 9.60309 9.69347 9.60309 12.1136C9.60309 15.0031 12.4678 17.3566 15.9906 17.3641V17.3759C17.679 17.3759 19.0548 18.503 19.0548 19.8875C19.0536 21.2735 17.679 22.399 15.9925 22.399Z" fill="#3AA6B9"/>
<path d="M16 0C9.60702 0 3.94846 3.71548 1.38093 9.51438L0.0252298 9.18028L1.76135 15.1714L6.08195 10.6728L4.81731 10.3613C6.93385 6.14443 11.2044 3.475 16 3.475C22.9059 3.475 28.5246 9.09395 28.5246 16C28.5246 22.9059 22.9059 28.5246 16 28.5246C9.24749 28.5246 3.63072 23.0356 3.47855 16.2868C3.47619 16.192 3.475 16.0964 3.475 16H0C0 16.1234 0.00157687 16.246 0.00433636 16.3672C0.198684 24.9869 7.37418 32 16 32C24.8225 32 32 24.8225 32 16C32 7.17767 24.8225 0 16 0Z" fill="#3AA6B9"/>
</svg>
