<svg width="32" height="32" viewBox="0 0 32 32" fill="none" xmlns="http://www.w3.org/2000/svg">
<path fill-rule="evenodd" clip-rule="evenodd" d="M28.6066 7.22143C28.7333 7.41371 28.7898 7.64381 28.7665 7.87288C28.7431 8.10195 28.6415 8.31596 28.4786 8.47876L16.2213 20.7348C16.0959 20.8601 15.9395 20.9498 15.768 20.9948L10.6626 22.3281C10.4939 22.3721 10.3166 22.3712 10.1482 22.3255C9.97993 22.2798 9.8265 22.1909 9.70317 22.0676C9.57985 21.9443 9.49092 21.7908 9.44522 21.6225C9.39952 21.4542 9.39863 21.2769 9.44265 21.1081L10.776 16.0041C10.8149 15.8509 10.8883 15.7086 10.9906 15.5881L23.2933 3.29343C23.4808 3.10616 23.735 3.00098 24 3.00098C24.265 3.00098 24.5191 3.10616 24.7066 3.29343L28.4786 7.0641C28.5265 7.1121 28.5694 7.16482 28.6066 7.22143ZM26.3573 7.77076L24 5.41476L12.6426 16.7721L11.8093 19.9628L15 19.1294L26.3573 7.77076Z" fill="#74AB30"/>
<path d="M26.188 22.8802C26.5524 19.7654 26.6688 16.6267 26.536 13.4935C26.5331 13.4197 26.5454 13.3461 26.5723 13.2772C26.5991 13.2084 26.6399 13.1459 26.692 13.0935L28.004 11.7815C28.0398 11.7455 28.0853 11.7205 28.135 11.7097C28.1847 11.6989 28.2364 11.7026 28.284 11.7205C28.3316 11.7384 28.373 11.7697 28.4033 11.8105C28.4336 11.8514 28.4514 11.9001 28.4546 11.9508C28.7016 15.6725 28.6079 19.4089 28.1746 23.1135C27.86 25.8095 25.6946 27.9228 23.0106 28.2228C18.3511 28.7388 13.6488 28.7388 8.98931 28.2228C6.30664 27.9228 4.13997 25.8095 3.82531 23.1135C3.27251 18.3874 3.27251 13.613 3.82531 8.88684C4.13997 6.19084 6.30531 4.07751 8.98931 3.77751C12.5258 3.38535 16.0889 3.29035 19.6413 3.49351C19.6921 3.49716 19.7409 3.5153 19.7817 3.54579C19.8226 3.57628 19.8538 3.61783 19.8718 3.66553C19.8897 3.71324 19.8936 3.76508 19.883 3.81494C19.8724 3.8648 19.8478 3.91057 19.812 3.94684L18.488 5.26951C18.4361 5.32117 18.3742 5.36167 18.3061 5.3885C18.238 5.41533 18.1651 5.42792 18.092 5.42551C15.1276 5.32474 12.1599 5.43837 9.21197 5.76551C8.35056 5.86085 7.54644 6.24381 6.92951 6.85251C6.31258 7.46121 5.91887 8.26012 5.81197 9.12017C5.27737 13.6913 5.27737 18.3091 5.81197 22.8802C5.91887 23.7402 6.31258 24.5391 6.92951 25.1478C7.54644 25.7565 8.35056 26.1395 9.21197 26.2348C13.6853 26.7348 18.3146 26.7348 22.7893 26.2348C23.6507 26.1395 24.4548 25.7565 25.0718 25.1478C25.6887 24.5391 26.0811 23.7402 26.188 22.8802Z" fill="#74AB30"/>
</svg>
