<svg width="32" height="32" viewBox="0 0 32 32" fill="none" xmlns="http://www.w3.org/2000/svg">
<path d="M28.034 17.29C28.164 17.72 28.564 18 28.994 18V17.99C29.1497 17.9915 29.3036 17.9563 29.4433 17.8873C29.5829 17.8183 29.7043 17.7174 29.7978 17.5928C29.8912 17.4682 29.9541 17.3234 29.9812 17.1701C30.0083 17.0167 29.999 16.8591 29.954 16.71C29.923 16.61 26.613 6 15.995 6C5.37698 6 2.06998 16.61 2.03998 16.72C1.87998 17.25 2.17998 17.8 2.70998 17.96C3.23998 18.12 3.79998 17.82 3.95998 17.29C4.06998 16.91 6.88998 8 15.997 8C25.102 8 27.911 16.903 28.034 17.29ZM9.99998 18C9.99998 16.4087 10.6321 14.8826 11.7573 13.7574C12.8826 12.6321 14.4087 12 16 12C17.5913 12 19.1174 12.6321 20.2426 13.7574C21.3678 14.8826 22 16.4087 22 18C22 19.5913 21.3678 21.1174 20.2426 22.2426C19.1174 23.3679 17.5913 24 16 24C14.4087 24 12.8826 23.3679 11.7573 22.2426C10.6321 21.1174 9.99998 19.5913 9.99998 18Z" fill="#111317"/>
</svg>
