<svg width="47" height="47" viewBox="0 0 47 47" fill="none" xmlns="http://www.w3.org/2000/svg">
<path d="M41.175 25.3947C41.3659 26.0263 41.9534 26.4375 42.585 26.4375V26.4228C42.8137 26.425 43.0398 26.3733 43.2449 26.272C43.4499 26.1706 43.6283 26.0225 43.7656 25.8395C43.9028 25.6565 43.9951 25.4438 44.035 25.2185C44.0748 24.9933 44.0611 24.7618 43.995 24.5428C43.9495 24.3959 39.0879 8.8125 23.4927 8.8125C7.89753 8.8125 3.04038 24.3959 2.99631 24.5575C2.76131 25.3359 3.20194 26.1437 3.98038 26.3787C4.75881 26.6137 5.58131 26.1731 5.81631 25.3947C5.97788 24.8366 10.1198 11.75 23.4957 11.75C36.8686 11.75 40.9943 24.8263 41.175 25.3947ZM14.6876 26.4375C14.6876 24.1003 15.616 21.8588 17.2687 20.2061C18.9214 18.5535 21.1628 17.625 23.5001 17.625C25.8373 17.625 28.0788 18.5535 29.7314 20.2061C31.3841 21.8588 32.3126 24.1003 32.3126 26.4375C32.3126 28.7747 31.3841 31.0162 29.7314 32.6689C28.0788 34.3215 25.8373 35.25 23.5001 35.25C21.1628 35.25 18.9214 34.3215 17.2687 32.6689C15.616 31.0162 14.6876 28.7747 14.6876 26.4375Z" fill="#B3B4BA"/>
</svg>
