<svg width="70" height="70" viewBox="0 0 70 70" fill="none" xmlns="http://www.w3.org/2000/svg">
<path fill-rule="evenodd" clip-rule="evenodd" d="M41.7687 15.8719C46.804 17.1356 51.2123 20.1626 54.2295 24.3848C57.2467 28.6069 58.6476 33.7402 58.2068 38.9028C57.717 44.6923 54.974 50.0117 50.5265 53.7636C46.0889 57.5156 40.3875 59.3279 34.5979 58.8381C28.8083 58.3483 23.489 55.6053 19.737 51.1578C15.9851 46.7201 14.1728 41.0187 14.6626 35.2292C15.0446 30.7229 16.7982 26.4714 19.7076 23.0133C22.6171 19.5552 26.5356 17.067 30.9145 15.9208C31.7178 15.7151 32.5603 16.2049 32.7758 17.0082C32.9815 17.8115 32.4917 18.654 31.6884 18.8597C27.9267 19.8393 24.547 21.9847 22.0391 24.9627C19.5313 27.9408 18.0325 31.5948 17.6994 35.4741C17.2782 40.4604 18.8358 45.3585 22.0685 49.1888C25.2915 53.0093 29.8663 55.3702 34.8526 55.7914C39.8389 56.2127 44.737 54.6551 48.5673 51.4223C52.3878 48.1994 54.7487 43.6245 55.1699 38.6383C55.5422 34.1908 54.3373 29.7727 51.7511 26.1383C49.1551 22.5039 45.3639 19.8981 41.034 18.8205C40.6422 18.7226 40.3091 18.4678 40.0936 18.125C39.8878 17.7821 39.8193 17.3609 39.9172 16.969C40.0152 16.5772 40.2699 16.2441 40.6128 16.0286C40.9556 15.8229 41.3769 15.7543 41.7687 15.8523V15.8719ZM37.958 10.2782V26.7554C37.958 27.5979 37.2723 28.2837 36.4298 28.2837C35.5873 28.2837 34.9016 27.5979 34.9016 26.7554V10.2782C34.9016 9.43574 35.5873 8.75 36.4298 8.75C37.2723 8.75 37.958 9.43574 37.958 10.2782Z" fill="#B3B4BA"/>
</svg>
