<svg width="19" height="23" viewBox="0 0 19 23" fill="none" xmlns="http://www.w3.org/2000/svg">
<path fill-rule="evenodd" clip-rule="evenodd" d="M1.15325 8.29583L0.0291496 10.9435C-0.0393086 11.1044 0.0160406 11.2912 0.161332 11.3888L1.15288 12.0552V15.678C1.15288 16.6893 1.9722 17.5086 2.98341 17.5086H5.12382V22.1255C5.12382 22.3269 5.28696 22.49 5.48833 22.49H14.6839C14.8853 22.49 15.0484 22.3269 15.0484 22.1255V14.8576C16.962 13.3217 18.1837 10.985 18.1837 8.37084C18.1837 3.75282 14.3697 0 9.66828 0C4.99237 0 1.19403 3.7124 1.15325 8.29583ZM14.4658 14.3883C16.284 12.9896 17.4543 10.8131 17.4543 8.37084C17.4543 4.15156 13.9637 0.729008 9.66828 0.729008C5.37326 0.729008 1.88262 4.15083 1.88226 8.36939C1.88226 8.38141 1.88153 8.39342 1.88043 8.4058V8.40762C1.87643 8.44768 1.86587 8.48591 1.84985 8.52087L0.817876 10.9515L1.72094 11.5582C1.82144 11.6259 1.88189 11.7395 1.88189 11.8608V15.678C1.88189 16.2865 2.37494 16.7792 2.98341 16.7792H5.48833C5.6897 16.7792 5.85283 16.9427 5.85283 17.1437C5.85283 17.1462 5.85283 17.1488 5.85283 17.151V21.761H14.3194V14.6803C14.3194 14.6038 14.3431 14.5328 14.3835 14.4742L14.3846 14.4724C14.3999 14.4502 14.4178 14.4298 14.4385 14.4108L14.4407 14.409C14.4487 14.4017 14.4571 14.3948 14.4658 14.3883ZM6.87461 5.51635L6.73441 7.49145C6.05493 7.63346 5.59356 8.28236 5.69407 8.97896C5.79858 9.7036 6.47187 10.2072 7.19614 10.1027C7.92078 9.99819 8.42438 9.32489 8.31988 8.60025C8.30276 8.48264 8.27072 8.37048 8.22593 8.26597L11.4697 5.62305C11.6132 5.72319 11.7763 5.79528 11.9503 5.83279L12.1146 8.29583C11.5327 8.50376 11.1576 9.09912 11.2494 9.73418C11.3539 10.4585 12.0268 10.9621 12.7515 10.8576C13.4761 10.753 13.9793 10.0801 13.8748 9.35548C13.7936 8.79106 13.3672 8.36101 12.8407 8.2474L12.6764 5.78436C13.258 5.57644 13.633 4.98107 13.5416 4.34637C13.4371 3.62173 12.7642 3.11813 12.0396 3.22264C11.5312 3.29583 11.1318 3.64904 10.9748 4.10313L8.62102 3.97531C8.4699 3.30785 7.82756 2.8574 7.13861 2.95682C6.41397 3.06132 5.91037 3.73462 6.01487 4.45889C6.08697 4.95958 6.43036 5.35431 6.87461 5.51635ZM12.4765 8.95201C12.8035 8.90504 13.1076 9.13226 13.1546 9.45926C13.2019 9.78626 12.9747 10.0899 12.6477 10.1373C12.3203 10.1846 12.0166 9.95704 11.9696 9.63004C11.9223 9.30304 12.1495 8.99935 12.4765 8.95201ZM7.0432 8.19205C7.00351 8.1895 6.96273 8.19132 6.92158 8.19715C6.59458 8.24412 6.36736 8.54818 6.41433 8.87518C6.46167 9.20218 6.76537 9.4294 7.09236 9.38243C7.41936 9.33509 7.64658 9.03139 7.59961 8.7044C7.55883 8.42255 7.32796 8.21499 7.05558 8.19278C7.0534 8.19278 7.05158 8.19242 7.04939 8.19242C7.04721 8.19242 7.04539 8.19205 7.0432 8.19205ZM8.58169 4.70214C8.43349 5.13109 8.06862 5.47011 7.60034 5.56806L7.46014 7.54316C7.56902 7.58285 7.67171 7.63637 7.76602 7.70228L11.0098 5.05936C10.9785 4.98617 10.9533 4.9097 10.9355 4.82995L8.58169 4.70214ZM12.1433 3.9429C12.4703 3.89593 12.774 4.12315 12.8214 4.45015C12.8687 4.77715 12.6411 5.08084 12.3141 5.12818C11.9871 5.17515 11.6834 4.94793 11.6361 4.62093C11.5891 4.29394 11.8163 3.99024 12.1433 3.9429ZM7.29118 4.86746C7.33124 4.87001 7.37202 4.86818 7.41317 4.86236C7.74017 4.81502 7.96739 4.51133 7.92042 4.18433C7.87308 3.85733 7.56938 3.63011 7.24239 3.67708C6.91539 3.72442 6.68817 4.02811 6.73514 4.35511C6.77592 4.63696 7.00679 4.84452 7.27917 4.86673C7.28135 4.86673 7.28317 4.86673 7.28536 4.86709C7.28718 4.86709 7.28936 4.86746 7.29118 4.86746Z" fill="white"/>
</svg>
