<svg width="50" height="50" viewBox="0 0 50 50" fill="none" xmlns="http://www.w3.org/2000/svg">
<path opacity="0.21" fill-rule="evenodd" clip-rule="evenodd" d="M0 25V35C0 43.2843 6.71573 50 15 50H25H35C43.2843 50 50 43.2843 50 35V25V15C50 6.71573 43.2843 0 35 0H25H15C6.71573 0 0 6.71573 0 15V25Z" fill="#1BB5F5"/>
<path opacity="0.587821" fill-rule="evenodd" clip-rule="evenodd" d="M17.2222 19.4444C17.2222 21.899 19.212 23.8889 21.6666 23.8889C24.1212 23.8889 26.1111 21.899 26.1111 19.4444C26.1111 16.9898 24.1212 15 21.6666 15C19.212 15 17.2222 16.9898 17.2222 19.4444ZM28.3333 23.8888C28.3333 25.7298 29.8257 27.2222 31.6666 27.2222C33.5076 27.2222 34.9999 25.7298 34.9999 23.8888C34.9999 22.0479 33.5076 20.5555 31.6666 20.5555C29.8257 20.5555 28.3333 22.0479 28.3333 23.8888Z" fill="#1BB5F5"/>
<path fill-rule="evenodd" clip-rule="evenodd" d="M21.6481 26.1113C16.4021 26.1113 12.098 28.8075 11.6674 34.1104C11.6439 34.3993 12.1963 35.0002 12.475 35.0002H30.8296C31.6643 35.0002 31.6773 34.3285 31.6643 34.1113C31.3387 28.6593 26.968 26.1113 21.6481 26.1113ZM37.7288 35.0002H33.4445C33.4444 32.4992 32.6181 30.1911 31.2235 28.3342C35.0085 28.3756 38.0991 30.2892 38.3317 34.3335C38.341 34.4964 38.3317 35.0002 37.7288 35.0002Z" fill="#1BB5F5"/>
</svg>
