<svg width="54" height="54" viewBox="0 0 54 54" fill="none" xmlns="http://www.w3.org/2000/svg">
<path d="M34.1552 36.5413L47.7429 50.1324C47.8998 50.2893 48.0861 50.4138 48.2911 50.4987C48.4961 50.5836 48.7158 50.6273 48.9377 50.6273C49.1596 50.6273 49.3793 50.5836 49.5843 50.4987C49.7893 50.4138 49.9755 50.2893 50.1324 50.1324C50.2893 49.9755 50.4138 49.7893 50.4987 49.5843C50.5836 49.3793 50.6273 49.1596 50.6273 48.9377C50.6273 48.7158 50.5836 48.4961 50.4987 48.2911C50.4138 48.0861 50.2893 47.8998 50.1324 47.7429L6.25743 3.86793C6.10053 3.71103 5.91427 3.58657 5.70927 3.50166C5.50428 3.41675 5.28456 3.37305 5.06268 3.37305C4.84079 3.37305 4.62108 3.41675 4.41608 3.50166C4.21109 3.58657 4.02483 3.71103 3.86793 3.86793C3.71103 4.02483 3.58657 4.21109 3.50166 4.41608C3.41675 4.62108 3.37305 4.84079 3.37305 5.06268C3.37305 5.28456 3.41675 5.50428 3.50166 5.70927C3.58657 5.91427 3.71103 6.10053 3.86793 6.25743L14.7692 17.1587C13.2855 18.2097 11.9504 19.4562 10.8002 20.8644C9.1714 22.863 7.8964 25.1253 7.0303 27.5537C6.95943 27.7596 6.87168 28.0431 6.87168 28.0431L6.81093 28.2523C6.81093 28.2523 6.55443 29.9297 8.00905 30.3144C8.44138 30.4287 8.90138 30.3667 9.28803 30.1421C9.67467 29.9174 9.95635 29.5485 10.0712 29.1163L10.0746 29.1062L10.1016 29.0218L10.2197 28.6539C10.9553 26.6037 12.0337 24.6933 13.4091 23.0042C14.4902 21.6753 15.7697 20.521 17.2026 19.5819L22.5283 24.9077C21.4536 25.5813 20.5445 26.4885 19.8688 27.5619C19.1931 28.6353 18.7681 29.8472 18.6253 31.1075C18.4826 32.3679 18.6259 33.6441 19.0445 34.8415C19.463 36.0388 20.1462 37.1263 21.043 38.0232C21.9399 38.9201 23.0275 39.6032 24.2248 40.0218C25.4221 40.4404 26.6984 40.5836 27.9587 40.4409C29.219 40.2982 30.4309 39.8731 31.5043 39.1974C32.5777 38.5217 33.485 37.6127 34.1586 36.5379M21.3336 14.1684L24.2158 17.0507C25.1393 16.9333 26.0693 16.8747 27.0002 16.8752C33.8987 16.8752 38.0904 19.9532 40.5947 23.0076C41.9703 24.6965 43.0487 26.6069 43.784 28.6573C43.8414 28.8193 43.8786 28.9442 43.9022 29.0252L43.9292 29.1096V29.1197L43.9326 29.1231C44.0574 29.5442 44.3416 29.9001 44.7248 30.1151C45.1079 30.33 45.5598 30.3871 45.9843 30.2742C46.4089 30.1612 46.7726 29.8872 46.9983 29.5102C47.224 29.1333 47.2937 28.6832 47.1928 28.2557V28.2456L47.1894 28.2321L47.1759 28.1882C47.1174 27.975 47.0499 27.7645 46.9734 27.5571C46.1073 25.1287 44.8323 22.8663 43.2036 20.8678C40.1796 17.1756 35.0867 13.5002 27.0069 13.5002C24.9212 13.5002 23.0346 13.7398 21.3336 14.1684Z" fill="#B3B4BA"/>
</svg>
