<svg width="32" height="32" viewBox="0 0 32 32" fill="none" xmlns="http://www.w3.org/2000/svg">
<path d="M20.2393 21.6543L28.2913 29.7083C28.3843 29.8013 28.4947 29.875 28.6161 29.9253C28.7376 29.9757 28.8678 30.0015 28.9993 30.0015C29.1308 30.0015 29.261 29.9757 29.3825 29.9253C29.504 29.875 29.6143 29.8013 29.7073 29.7083C29.8003 29.6153 29.874 29.5049 29.9244 29.3835C29.9747 29.262 30.0006 29.1318 30.0006 29.0003C30.0006 28.8688 29.9747 28.7386 29.9244 28.6171C29.874 28.4956 29.8003 28.3853 29.7073 28.2923L3.70731 2.29229C3.61433 2.19931 3.50396 2.12556 3.38248 2.07524C3.261 2.02492 3.1308 1.99902 2.99931 1.99902C2.86782 1.99902 2.73762 2.02492 2.61614 2.07524C2.49466 2.12556 2.38429 2.19931 2.29131 2.29229C2.19833 2.38526 2.12458 2.49564 2.07426 2.61712C2.02395 2.7386 1.99805 2.8688 1.99805 3.00029C1.99805 3.13177 2.02395 3.26197 2.07426 3.38345C2.12458 3.50493 2.19833 3.61531 2.29131 3.70829L8.75131 10.1683C7.87208 10.7911 7.08093 11.5298 6.39931 12.3643C5.43411 13.5486 4.67855 14.8893 4.16531 16.3283C4.12331 16.4503 4.07131 16.6183 4.07131 16.6183L4.03531 16.7423C4.03531 16.7423 3.88331 17.7363 4.74531 17.9643C5.0015 18.032 5.2741 17.9953 5.50322 17.8621C5.73234 17.729 5.89926 17.5104 5.96731 17.2543L5.96931 17.2483L5.98531 17.1983L6.05531 16.9803C6.49123 15.7653 7.13031 14.6332 7.94531 13.6323C8.586 12.8448 9.34424 12.1608 10.1933 11.6043L13.3493 14.7603C12.7124 15.1595 12.1738 15.6971 11.7733 16.3332C11.3729 16.9692 11.121 17.6874 11.0364 18.4343C10.9519 19.1811 11.0368 19.9375 11.2848 20.647C11.5329 21.3565 11.9377 22.001 12.4692 22.5324C13.0006 23.0639 13.6451 23.4687 14.3546 23.7168C15.0641 23.9648 15.8205 24.0497 16.5673 23.9652C17.3142 23.8806 18.0323 23.6287 18.6684 23.2283C19.3045 22.8278 19.8421 22.2892 20.2413 21.6523M12.6413 8.39629L14.3493 10.1043C14.8966 10.0348 15.4477 10 15.9993 10.0003C20.0873 10.0003 22.5713 11.8243 24.0553 13.6343C24.8705 14.6351 25.5096 15.7673 25.9453 16.9823C25.9793 17.0783 26.0013 17.1523 26.0153 17.2003L26.0313 17.2503V17.2563L26.0333 17.2583C26.1073 17.5079 26.2757 17.7188 26.5028 17.8462C26.7298 17.9735 26.9976 18.0074 27.2492 17.9404C27.5007 17.8735 27.7163 17.7111 27.85 17.4877C27.9838 17.2644 28.0251 16.9977 27.9653 16.7443V16.7383L27.9633 16.7303L27.9553 16.7043C27.9207 16.578 27.8806 16.4532 27.8353 16.3303C27.3221 14.8913 26.5665 13.5506 25.6013 12.3663C23.8093 10.1783 20.7913 8.00029 16.0033 8.00029C14.7673 8.00029 13.6493 8.14229 12.6413 8.39629Z" fill="#111317"/>
</svg>
