<svg width="22" height="22" viewBox="0 0 22 22" fill="none" xmlns="http://www.w3.org/2000/svg">
<g clip-path="url(#clip0_157_1873)">
<path d="M14.6667 6.41671C14.6667 7.63228 14.1838 8.79807 13.3243 9.65761C12.4647 10.5172 11.2989 11 10.0834 11C8.8678 11 7.70201 10.5172 6.84247 9.65761C5.98293 8.79807 5.50004 7.63228 5.50004 6.41671C5.50004 5.20113 5.98293 4.03534 6.84247 3.1758C7.70201 2.31626 8.8678 1.83337 10.0834 1.83337C11.2989 1.83337 12.4647 2.31626 13.3243 3.1758C14.1838 4.03534 14.6667 5.20113 14.6667 6.41671ZM10.0834 11.9167C12.2797 11.9167 14.2771 12.5529 15.7465 13.4494C16.4799 13.8967 17.1069 14.4247 17.5597 14.9985C18.0052 15.5623 18.3334 16.237 18.3334 16.9584C18.3334 17.733 17.9566 18.3435 17.414 18.7789C16.9006 19.1914 16.2232 19.4645 15.5036 19.6552C14.0571 20.0375 12.1266 20.1667 10.0834 20.1667C8.04012 20.1667 6.10962 20.0384 4.66312 19.6552C3.94354 19.4645 3.26612 19.1914 2.75279 18.7789C2.20921 18.3425 1.83337 17.733 1.83337 16.9584C1.83337 16.237 2.16154 15.5623 2.60704 14.9976C3.05987 14.4247 3.68596 13.8976 4.42021 13.4485C5.88962 12.5538 7.88796 11.9167 10.0834 11.9167ZM19.25 11.9167C19.4837 11.917 19.7084 12.0064 19.8783 12.1668C20.0482 12.3272 20.1504 12.5464 20.1641 12.7797C20.1778 13.0129 20.1019 13.2426 19.952 13.4217C19.802 13.6009 19.5893 13.716 19.3573 13.7436L19.25 13.75H18.3334C18.0997 13.7498 17.875 13.6603 17.7051 13.4999C17.5352 13.3395 17.433 13.1203 17.4193 12.8871C17.4056 12.6539 17.4815 12.4242 17.6314 12.245C17.7814 12.0659 17.9941 11.9507 18.2261 11.9231L18.3334 11.9167H19.25ZM16.5 10.0834C16.5 9.84026 16.5966 9.6071 16.7685 9.43519C16.9404 9.26328 17.1736 9.16671 17.4167 9.16671H19.25C19.4932 9.16671 19.7263 9.26328 19.8982 9.43519C20.0701 9.6071 20.1667 9.84026 20.1667 10.0834C20.1667 10.3265 20.0701 10.5596 19.8982 10.7316C19.7263 10.9035 19.4932 11 19.25 11H17.4167C17.1736 11 16.9404 10.9035 16.7685 10.7316C16.5966 10.5596 16.5 10.3265 16.5 10.0834ZM16.5 6.41671C16.2569 6.41671 16.0238 6.51328 15.8519 6.68519C15.6799 6.8571 15.5834 7.09026 15.5834 7.33337C15.5834 7.57649 15.6799 7.80965 15.8519 7.98155C16.0238 8.15346 16.2569 8.25004 16.5 8.25004H19.25C19.4932 8.25004 19.7263 8.15346 19.8982 7.98155C20.0701 7.80965 20.1667 7.57649 20.1667 7.33337C20.1667 7.09026 20.0701 6.8571 19.8982 6.68519C19.7263 6.51328 19.4932 6.41671 19.25 6.41671H16.5Z" fill="#868AA5"/>
</g>
<defs>
<clipPath id="clip0_157_1873">
<rect width="22" height="22" fill="white"/>
</clipPath>
</defs>
</svg>
