<svg width="13" height="13" viewBox="0 0 13 13" fill="none" xmlns="http://www.w3.org/2000/svg">
<path d="M2.125 6.5C2.125 6.5 3.71563 3.375 6.5 3.375C9.28375 3.375 10.875 6.5 10.875 6.5C10.875 6.5 9.28375 9.625 6.5 9.625C3.71563 9.625 2.125 6.5 2.125 6.5Z" stroke="#1BB5F5" stroke-linecap="round" stroke-linejoin="round"/>
<path d="M12.125 9.625V10.875C12.125 11.2065 11.9933 11.5245 11.7589 11.7589C11.5245 11.9933 11.2065 12.125 10.875 12.125H2.125C1.79348 12.125 1.47554 11.9933 1.24112 11.7589C1.0067 11.5245 0.875 11.2065 0.875 10.875V9.625M12.125 3.375V2.125C12.125 1.79348 11.9933 1.47554 11.7589 1.24112C11.5245 1.0067 11.2065 0.875 10.875 0.875H2.125C1.79348 0.875 1.47554 1.0067 1.24112 1.24112C1.0067 1.47554 0.875 1.79348 0.875 2.125V3.375M6.5 7.125C6.66576 7.125 6.82473 7.05915 6.94194 6.94194C7.05915 6.82473 7.125 6.66576 7.125 6.5C7.125 6.33424 7.05915 6.17527 6.94194 6.05806C6.82473 5.94085 6.66576 5.875 6.5 5.875C6.33424 5.875 6.17527 5.94085 6.05806 6.05806C5.94085 6.17527 5.875 6.33424 5.875 6.5C5.875 6.66576 5.94085 6.82473 6.05806 6.94194C6.17527 7.05915 6.33424 7.125 6.5 7.125Z" stroke="#1BB5F5" stroke-linecap="round" stroke-linejoin="round"/>
</svg>
