<svg width="44" height="44" viewBox="0 0 44 44" fill="none" xmlns="http://www.w3.org/2000/svg">
<path fill-rule="evenodd" clip-rule="evenodd" d="M22.0034 26.1243L38.503 42.6239C39.0531 43.1552 39.7899 43.4491 40.5546 43.4425C41.3193 43.4358 42.0509 43.1291 42.5917 42.5883C43.1324 42.0476 43.4392 41.316 43.4458 40.5513C43.4525 39.7865 43.1585 39.0498 42.6272 38.4997L26.1276 22.0001L42.6272 5.50053C43.1585 4.95044 43.4525 4.21368 43.4458 3.44894C43.4392 2.6842 43.1324 1.95266 42.5917 1.41189C42.0509 0.871116 41.3193 0.564373 40.5546 0.557727C39.7899 0.551082 39.0531 0.845066 38.503 1.37636L22.0034 17.8759L5.50385 1.37636C4.95128 0.858199 4.2188 0.575343 3.46139 0.587642C2.70399 0.599941 1.98108 0.906431 1.44563 1.44226C0.910177 1.97809 0.604197 2.70121 0.592434 3.45863C0.580671 4.21605 0.864046 4.94833 1.3826 5.50053L17.8793 22.0001L1.37968 38.4997C1.10111 38.7687 0.878912 39.0906 0.726053 39.4464C0.573193 39.8023 0.492733 40.185 0.489368 40.5723C0.486003 40.9595 0.559799 41.3436 0.706451 41.7021C0.853104 42.0605 1.06968 42.3862 1.34353 42.66C1.61738 42.9339 1.94303 43.1504 2.30148 43.2971C2.65993 43.4437 3.04399 43.5175 3.43127 43.5142C3.81854 43.5108 4.20127 43.4304 4.55711 43.2775C4.91296 43.1246 5.23479 42.9024 5.50385 42.6239L22.0034 26.1243Z" fill="#B3B4BA"/>
</svg>
