<svg width="24" height="24" viewBox="0 0 24 24" fill="none" xmlns="http://www.w3.org/2000/svg">
<path d="M19.9107 5.76786H18.1429V4.58929C18.1429 4.2637 17.8792 4 17.5536 4C17.228 4 16.9643 4.2637 16.9643 4.58929V5.76786H7.53571V4.58929C7.53571 4.2637 7.27202 4 6.94643 4C6.62084 4 6.35714 4.2637 6.35714 4.58929V5.76786H4.58929C4.2637 5.76786 4 6.03156 4 6.35714V16.9643C4 17.2899 4.2637 17.5536 4.58929 17.5536H6.35714V19.9107C6.35714 20.2363 6.62084 20.5 6.94643 20.5C7.27202 20.5 7.53571 20.2363 7.53571 19.9107V19.3214H16.9643V19.9107C16.9643 20.2363 17.228 20.5 17.5536 20.5C17.8792 20.5 18.1429 20.2363 18.1429 19.9107V17.5536H19.9107C20.2363 17.5536 20.5 17.2899 20.5 16.9643V6.35714C20.5 6.03156 20.2363 5.76786 19.9107 5.76786ZM16.9643 18.1429H7.53571V17.5536H16.9643V18.1429ZM19.3214 16.375H5.17857V6.94643H19.3214V16.375Z" fill="white"/>
</svg>
