<svg width="24" height="24" viewBox="0 0 24 24" fill="none" xmlns="http://www.w3.org/2000/svg">
<path d="M4 4V19.2784H20.5V4H4ZM19.7308 18.5092H4.7692V8.04223H19.7308V18.5092ZM4.7692 7.27303V4.7692H19.7308V7.27303H4.7692Z" fill="white"/>
<path d="M18.689 9.74805H14.3985V12.7064H18.689V9.74805Z" fill="white"/>
<path d="M13.3988 11.4883H6.0329V12.2575H13.3988V11.4883Z" fill="white"/>
<path d="M13.3988 10.1953H6.0329V10.9645H13.3988V10.1953Z" fill="white"/>
<path d="M18.689 14.0508H14.3985V17.0091H18.689V14.0508Z" fill="white"/>
<path d="M13.3988 15.793H6.0329V16.5622H13.3988V15.793Z" fill="white"/>
<path d="M13.3988 14.498H6.0329V15.2672H13.3988V14.498Z" fill="white"/>
<path d="M18.8881 5.63574H14.198V6.40494H18.8881V5.63574Z" fill="white"/>
</svg>
