<svg width="24" height="24" viewBox="0 0 24 24" fill="none" xmlns="http://www.w3.org/2000/svg">
<path d="M20.3815 10.0821C20.2576 10.254 20.0634 10.3453 19.8658 10.3453C19.7378 10.3453 19.608 10.3065 19.4956 10.2255L12.9184 5.47913C12.5316 5.19899 11.9705 5.19939 11.5838 5.47872L5.00571 10.2255C4.72226 10.4321 4.32476 10.3664 4.11982 10.0821C3.91487 9.79785 3.97933 9.40118 4.26361 9.19582L10.8408 4.44945C11.6705 3.85032 12.83 3.84991 13.6613 4.44987L20.2377 9.19582C20.522 9.40119 20.5865 9.79785 20.3815 10.0821ZM17.5396 18.1729C17.5396 18.7563 17.0652 19.2307 16.4818 19.2307H14.5778V16.4804C14.5778 15.797 14.2786 15.1508 13.758 14.7074C13.2374 14.2641 12.5465 14.0744 11.8648 14.1847C10.7582 14.3649 9.92356 15.3908 9.92356 16.5709V19.2307H8.01956C7.43613 19.2307 6.96178 18.7563 6.96178 18.1729V10.118L5.69245 11.034V18.1729C5.69245 19.4559 6.73618 20.5 8.01956 20.5H10.5582C10.9086 20.5 11.1929 20.2157 11.1929 19.8653V16.5709C11.1929 16.0061 11.5689 15.5189 12.068 15.4375C12.3928 15.3863 12.6961 15.4706 12.9357 15.6743C13.1721 15.8759 13.3085 16.1697 13.3085 16.4804V19.8653C13.3085 20.2157 13.5927 20.5 13.9431 20.5H16.4818C17.7652 20.5 18.8089 19.4559 18.8089 18.1729V11.034L17.5396 10.118V18.1729Z" fill="#2C2C2C"/>
</svg>
