<svg width="24" height="24" viewBox="0 0 24 24" fill="none" xmlns="http://www.w3.org/2000/svg">
<path d="M9.1875 9.78125C9.1875 9.93594 9.31406 10.0625 9.46875 10.0625H10.0312C10.8075 10.0625 11.4375 10.6925 11.4375 11.4688C11.4375 12.1494 10.9509 12.7175 10.3097 12.8469C10.3097 12.8553 10.3125 12.8666 10.3125 12.875V13.4375C10.3125 13.7469 10.0594 14 9.75 14C9.44063 14 9.1875 13.7469 9.1875 13.4375V12.875H8.625C8.31563 12.875 8.0625 12.6219 8.0625 12.3125C8.0625 12.0031 8.31563 11.75 8.625 11.75H10.0312C10.1859 11.75 10.3125 11.6234 10.3125 11.4688C10.3125 11.3141 10.1859 11.1875 10.0312 11.1875H9.46875C8.6925 11.1875 8.0625 10.5575 8.0625 9.78125C8.0625 9.10063 8.54906 8.5325 9.19031 8.40312C9.19031 8.39469 9.1875 8.38344 9.1875 8.375V7.8125C9.1875 7.50312 9.44063 7.25 9.75 7.25C10.0594 7.25 10.3125 7.50312 10.3125 7.8125V8.375H10.875C11.1844 8.375 11.4375 8.62812 11.4375 8.9375C11.4375 9.24687 11.1844 9.5 10.875 9.5H9.46875C9.31406 9.5 9.1875 9.62656 9.1875 9.78125ZM21 10.625V14.5625C21 15.4934 20.2434 16.25 19.3125 16.25H18.75C18.75 17.4903 17.7403 18.5 16.5 18.5C15.2597 18.5 14.25 17.4903 14.25 16.25H8.625C8.625 17.4903 7.61531 18.5 6.375 18.5C5.13469 18.5 4.125 17.4903 4.125 16.25C4.125 16.2163 4.13063 16.1853 4.13344 16.1544C3.47531 15.9266 3 15.2994 3 14.5625V6.6875C3 5.75656 3.75656 5 4.6875 5H15.375C16.3059 5 17.0625 5.75656 17.0625 6.6875V8.9375H19.3125C20.2434 8.9375 21 9.69406 21 10.625ZM7.5 16.25H5.25C5.25 16.8716 5.75344 17.375 6.375 17.375C6.99656 17.375 7.5 16.8716 7.5 16.25ZM15.9375 15.125V6.6875C15.9375 6.37812 15.6844 6.125 15.375 6.125H4.6875C4.37812 6.125 4.125 6.37812 4.125 6.6875V14.5625C4.125 14.8719 4.37812 15.125 4.6875 15.125H15.9375ZM17.625 16.25H16.5H15.375C15.375 16.8716 15.8784 17.375 16.5 17.375C17.1216 17.375 17.625 16.8716 17.625 16.25ZM19.875 10.625C19.875 10.3156 19.6219 10.0625 19.3125 10.0625H17.0625V15.125H19.3125C19.6219 15.125 19.875 14.8719 19.875 14.5625V10.625Z" fill="white"/>
</svg>
