<svg width="24" height="24" viewBox="0 0 24 24" fill="none" xmlns="http://www.w3.org/2000/svg">
<path fill-rule="evenodd" clip-rule="evenodd" d="M14.3205 5.44178C16.0469 5.87505 17.5583 6.91289 18.5928 8.36049C19.6272 9.80809 20.1075 11.5681 19.9564 13.3381C19.7885 15.3231 18.848 17.1469 17.3232 18.4332C15.8017 19.7196 13.8469 20.341 11.8619 20.1731C9.87692 20.0051 8.05314 19.0647 6.76676 17.5398C5.48037 16.0183 4.85901 14.0636 5.02695 12.0786C5.15794 10.5336 5.75915 9.07589 6.75668 7.89027C7.75422 6.70465 9.0977 5.85154 10.599 5.45857C10.8745 5.38804 11.1633 5.55597 11.2372 5.83139C11.3077 6.1068 11.1398 6.39565 10.8644 6.46618C9.57463 6.80205 8.41588 7.53761 7.55605 8.55865C6.69623 9.5797 6.18234 10.8325 6.06815 12.1625C5.92372 13.8721 6.45776 15.5515 7.56613 16.8647C8.67114 18.1746 10.2397 18.9841 11.9492 19.1285C13.6588 19.2729 15.3382 18.7389 16.6514 17.6305C17.9613 16.5255 18.7708 14.957 18.9152 13.2474C19.0428 11.7226 18.6297 10.2078 17.743 8.9617C16.8529 7.71562 15.5531 6.8222 14.0686 6.45275C13.9342 6.41916 13.82 6.33183 13.7461 6.21428C13.6756 6.09672 13.6521 5.9523 13.6857 5.81795C13.7193 5.6836 13.8066 5.56941 13.9242 5.49552C14.0417 5.42498 14.1861 5.40147 14.3205 5.43506V5.44178ZM13.0139 3.52396V9.1733C13.0139 9.46215 12.7788 9.69726 12.49 9.69726C12.2011 9.69726 11.966 9.46215 11.966 9.1733V3.52396C11.966 3.23511 12.2011 3 12.49 3C12.7788 3 13.0139 3.23511 13.0139 3.52396Z" fill="white"/>
</svg>
