<svg width="24" height="24" viewBox="0 0 24 24" fill="none" xmlns="http://www.w3.org/2000/svg">
<path d="M4.59761 16.8291C4.99296 17.2244 5.52668 17.4419 6.09994 17.4419H10.5081H12.5837H16.9918C17.5651 17.4419 18.0988 17.2244 18.4941 16.8291C18.9092 16.414 19.1267 15.8605 19.1069 15.2872C19.0871 14.6942 18.8499 14.1605 18.4151 13.7651L17.9209 13.3302C17.7232 13.1523 17.6244 12.8953 17.6244 12.6384V10.2267C17.6244 8.74419 17.0511 7.24186 16.0825 6.07558C14.936 4.7314 13.3941 4 11.6941 4C11.6348 4 11.5953 4 11.5558 4.01977C11.4964 4 11.4371 4 11.3976 4C9.69761 4 8.13598 4.7314 7.02901 6.05581C6.04064 7.22209 5.48715 8.72442 5.48715 10.207V12.6186C5.48715 12.8756 5.36854 13.1326 5.19064 13.3105L4.69645 13.7453C4.26157 14.1407 4.02436 14.6744 4.00459 15.2674C3.96505 15.8605 4.1825 16.414 4.59761 16.8291ZM5.46738 14.6349L5.96157 14.2C6.39645 13.8047 6.65343 13.2314 6.65343 12.6384V10.2267C6.65343 7.12326 9.12436 5.20581 11.3976 5.20581C11.4569 5.20581 11.4964 5.20581 11.536 5.18605C11.5755 5.20581 11.6348 5.20581 11.6744 5.20581C13.9476 5.20581 16.4185 7.12326 16.4185 10.2267V12.6384C16.4185 13.2314 16.6755 13.8047 17.1104 14.2L17.6046 14.6349C17.8023 14.8128 17.9011 15.05 17.9011 15.307C17.9011 15.564 17.8023 15.8012 17.6244 15.9988C17.4662 16.157 17.229 16.2558 16.972 16.2558H12.5837H10.4883H6.09994C5.84296 16.2558 5.60575 16.157 5.44761 15.9791C5.26971 15.8012 5.17087 15.5442 5.17087 15.2872C5.17087 15.0302 5.26971 14.793 5.46738 14.6349Z" fill="#020A13"/>
<path d="M13.0186 18.3313C13.0186 19.1418 12.3465 19.8139 11.536 19.8139C10.7256 19.8139 10.0535 19.1418 10.0535 18.3313C10.0535 17.9953 9.7965 17.7383 9.46045 17.7383C9.12441 17.7383 8.86743 17.9953 8.86743 18.3313C8.86743 19.7941 10.0732 20.9999 11.536 20.9999C12.9988 20.9999 14.2046 19.7941 14.2046 18.3313C14.2046 17.9953 13.9477 17.7383 13.6116 17.7383C13.2756 17.7383 13.0186 17.9953 13.0186 18.3313Z" fill="#020A13"/>
</svg>
