<svg width="24" height="24" viewBox="0 0 24 24" fill="none" xmlns="http://www.w3.org/2000/svg">
<path d="M18.3 4H6.2C4.98725 4 4 4.98725 4 6.2V18.3C4 19.5127 4.98725 20.5 6.2 20.5H18.3C19.5127 20.5 20.5 19.5127 20.5 18.3V6.2C20.5 4.98725 19.5127 4 18.3 4ZM14.4315 5.1V7.52H10.0694V5.1H14.4315ZM19.4 18.3C19.4 18.9064 18.9064 19.4 18.3 19.4H6.2C5.59363 19.4 5.1 18.9064 5.1 18.3V6.2C5.1 5.59363 5.59363 5.1 6.2 5.1H8.96848V7.5207C8.96848 8.12708 9.46211 8.6207 10.0685 8.6207H14.4306C15.037 8.6207 15.5306 8.12708 15.5306 7.5207V5.1H18.2991C18.9055 5.1 19.3991 5.59363 19.3991 6.2V18.3H19.4Z" fill="white"/>
<path d="M11.3748 6.85977H13.1245C13.4283 6.85977 13.6745 6.61365 13.6745 6.30977C13.6745 6.00588 13.4283 5.75977 13.1245 5.75977H11.3748C11.0709 5.75977 10.8248 6.00588 10.8248 6.30977C10.8248 6.61365 11.0709 6.85977 11.3748 6.85977Z" fill="white"/>
<path d="M10.3765 17.3379H6.61165C6.30776 17.3379 6.06165 17.584 6.06165 17.8879C6.06165 18.1918 6.30776 18.4379 6.61165 18.4379H10.3765C10.6803 18.4379 10.9265 18.1918 10.9265 17.8879C10.9265 17.584 10.6803 17.3379 10.3765 17.3379Z" fill="white"/>
<path d="M10.3765 15.7188H6.61165C6.30776 15.7188 6.06165 15.9649 6.06165 16.2688C6.06165 16.5726 6.30776 16.8188 6.61165 16.8188H10.3765C10.6803 16.8188 10.9265 16.5726 10.9265 16.2688C10.9265 15.9649 10.6803 15.7188 10.3765 15.7188Z" fill="white"/>
</svg>
