<svg width="24" height="24" viewBox="0 0 24 24" fill="none" xmlns="http://www.w3.org/2000/svg">
<path d="M19.1973 4H5.30268C4.58214 4 4 4.58214 4 5.30268V7.90803C4 8.15147 4.19133 8.34197 4.43395 8.34197H4.86789V19.1973C4.86789 19.9179 5.45003 20.5 6.17057 20.5H18.3286C19.0491 20.5 19.6313 19.9179 19.6313 19.1973L19.6321 8.34197H20.066C20.3095 8.34197 20.5 8.15064 20.5 7.90803V5.30268C20.5 4.58214 19.9179 4 19.1973 4ZM4.86789 5.30268C4.86789 5.05923 5.05923 4.86873 5.30184 4.86873H11.8152V7.47408L4.86789 7.47326V5.30186V5.30268ZM18.7634 19.1973C18.7634 19.4408 18.572 19.6313 18.3294 19.6313L6.17057 19.6321C5.92713 19.6321 5.73662 19.4408 5.73662 19.1981V8.34195H18.7634V19.1973ZM19.6321 7.47325H12.6848V4.86789H19.1982C19.4416 4.86789 19.6321 5.05923 19.6321 5.30184V7.47325Z" fill="#020A13"/>
<path d="M8.34198 11.3552C8.34198 12.0587 8.91516 12.6319 9.6186 12.6319H14.8814C15.5849 12.6319 16.158 12.0587 16.158 11.3552C16.158 10.6518 15.5849 10.0786 14.8814 10.0786H9.6186C8.91516 10.0786 8.34198 10.6518 8.34198 11.3552ZM15.2893 11.3552C15.2893 11.5808 15.1069 11.7631 14.8814 11.7631H9.6186C9.39308 11.7631 9.21071 11.5808 9.21071 11.3552C9.21071 11.1297 9.39308 10.9473 9.6186 10.9473H14.8814C15.1069 10.9473 15.2893 11.1297 15.2893 11.3552Z" fill="#020A13"/>
</svg>
