<svg width="24" height="24" viewBox="0 0 24 24" fill="none" xmlns="http://www.w3.org/2000/svg">
<path d="M7.61957 13.3181C7.90562 13.3181 8.13751 13.0862 8.13751 12.8002C8.13751 12.5141 7.90562 12.2822 7.61957 12.2822C7.33351 12.2822 7.10162 12.5141 7.10162 12.8002C7.10162 13.0862 7.33351 13.3181 7.61957 13.3181Z" fill="#2C2C2C"/>
<path d="M10.2092 13.3181C10.4953 13.3181 10.7272 13.0862 10.7272 12.8002C10.7272 12.5141 10.4953 12.2822 10.2092 12.2822C9.92317 12.2822 9.69128 12.5141 9.69128 12.8002C9.69128 13.0862 9.92317 13.3181 10.2092 13.3181Z" fill="#2C2C2C"/>
<path d="M12.7989 13.3181C13.085 13.3181 13.3169 13.0862 13.3169 12.8002C13.3169 12.5141 13.085 12.2822 12.7989 12.2822C12.5129 12.2822 12.281 12.5141 12.281 12.8002C12.281 13.0862 12.5129 13.3181 12.7989 13.3181Z" fill="#2C2C2C"/>
<path d="M15.9127 11.7691C16.05 11.7691 16.1818 11.7146 16.2789 11.6174C16.376 11.5203 16.4306 11.3886 16.4306 11.2512V10.2153C16.4306 9.66584 16.2123 9.13887 15.8238 8.75034C15.4353 8.36181 14.9083 8.14354 14.3588 8.14354H13.323V7.10765C13.323 6.69955 13.2426 6.29544 13.0864 5.9184C12.9302 5.54137 12.7013 5.19878 12.4127 4.91021C12.1242 4.62164 11.7816 4.39273 11.4045 4.23656C11.0275 4.08038 10.6234 4 10.2153 4C9.8072 4 9.40309 4.08038 9.02606 4.23656C8.64902 4.39273 8.30643 4.62164 8.01786 4.91021C7.72929 5.19878 7.50038 5.54137 7.34421 5.9184C7.18803 6.29544 7.10765 6.69955 7.10765 7.10765V8.14354H6.07177C5.5223 8.14354 4.99534 8.36181 4.60681 8.75034C4.21827 9.13887 4 9.66584 4 10.2153V15.3947C4 15.9442 4.21827 16.4712 4.60681 16.8597C4.99534 17.2482 5.5223 17.4665 6.07177 17.4665H10.2153C10.3527 17.4665 10.4844 17.4119 10.5815 17.3148C10.6787 17.2177 10.7332 17.0859 10.7332 16.9485C10.7332 16.8112 10.6787 16.6794 10.5815 16.5823C10.4844 16.4852 10.3527 16.4306 10.2153 16.4306H6.07177C5.79703 16.4306 5.53355 16.3215 5.33929 16.1272C5.14502 15.9329 5.03588 15.6695 5.03588 15.3947V10.2153C5.03588 9.94057 5.14502 9.67709 5.33929 9.48282C5.53355 9.28856 5.79703 9.17942 6.07177 9.17942H14.3588C14.6336 9.17942 14.8971 9.28856 15.0913 9.48282C15.2856 9.67709 15.3947 9.94057 15.3947 10.2153V11.2512C15.3947 11.3886 15.4493 11.5203 15.5464 11.6174C15.6436 11.7146 15.7753 11.7691 15.9127 11.7691ZM8.14354 7.10765C8.14354 6.55818 8.36181 6.03122 8.75034 5.64269C9.13887 5.25416 9.66584 5.03588 10.2153 5.03588C10.7648 5.03588 11.2917 5.25416 11.6803 5.64269C12.0688 6.03122 12.2871 6.55818 12.2871 7.10765V8.14354H8.14354V7.10765Z" fill="#2C2C2C"/>
<path d="M20.0147 15.183L19.735 15.6026C19.4168 14.7158 18.7983 13.9684 17.9868 13.4899C17.1753 13.0114 16.2219 12.8319 15.2919 12.9826C14.362 13.1334 13.514 13.6048 12.8952 14.3151C12.2764 15.0254 11.9256 15.93 11.9037 16.8718C11.8819 17.8137 12.1903 18.7335 12.7755 19.4718C13.3607 20.2101 14.1858 20.7203 15.1078 20.914C16.0298 21.1077 16.9905 20.9727 17.8233 20.5323C18.6562 20.092 19.3087 19.3741 19.6677 18.5031C19.7199 18.376 19.7195 18.2334 19.6666 18.1066C19.6136 17.9799 19.5125 17.8793 19.3854 17.8271C19.2584 17.7749 19.1158 17.7754 18.989 17.8283C18.8623 17.8812 18.7617 17.9824 18.7095 18.1094C18.4448 18.7597 17.9611 19.297 17.3421 19.6283C16.723 19.9595 16.0076 20.0639 15.3197 19.9233C14.6318 19.7827 14.0148 19.406 13.5753 18.8584C13.1359 18.3108 12.9018 17.6268 12.9135 16.9248C12.9252 16.2228 13.182 15.547 13.6394 15.0144C14.0968 14.4818 14.7261 14.1258 15.4183 14.0082C16.1105 13.8907 16.822 14.0188 17.4297 14.3705C18.0373 14.7222 18.5029 15.2753 18.7458 15.9341L18.2278 15.6181C18.1122 15.5566 17.9775 15.5412 17.851 15.575C17.7245 15.6087 17.6154 15.6892 17.5458 15.8002C17.4762 15.9111 17.4512 16.0443 17.4759 16.173C17.5006 16.3016 17.5731 16.4161 17.6788 16.4934L19.1549 17.4154L19.2378 17.4516H19.2844C19.3325 17.4584 19.3814 17.4584 19.4295 17.4516C19.4725 17.4567 19.5159 17.4567 19.5589 17.4516H19.59L19.6729 17.4154C19.6849 17.4178 19.6972 17.4178 19.7091 17.4154L19.7817 17.3688L19.8127 17.3325C19.8311 17.3141 19.8468 17.2931 19.8593 17.2704L20.8538 15.789C20.9307 15.675 20.9592 15.5351 20.933 15.4001C20.9068 15.2651 20.828 15.146 20.714 15.0691C20.5999 14.9922 20.46 14.9637 20.325 14.9899C20.19 15.0161 20.0709 15.0949 19.994 15.2089L20.0147 15.183Z" fill="#2C2C2C"/>
</svg>
