<svg width="24" height="24" viewBox="0 0 24 24" fill="none" xmlns="http://www.w3.org/2000/svg">
<path fill-rule="evenodd" clip-rule="evenodd" d="M18.8217 9.40385L16.9178 8.88462L15.014 8.36539C14.6678 8.36539 14.4948 7.84615 14.6678 7.5C14.6678 7.32692 14.8409 7.15385 15.014 6.98077L16.7448 5.94231C16.3986 5.42308 16.0525 4.73077 15.7063 4.21154H14.3217H12.5909H10.8602H9.30246L8.95631 4.90385C8.78323 5.25 8.264 5.42308 7.91785 5.25C7.74477 5.07692 7.57169 4.55769 7.74477 4.21154L8.264 3.34615C8.43708 3.17308 8.61015 3 8.95631 3H10.6871H12.4178H14.1486H15.8794C16.2255 3 16.3986 3.17308 16.5717 3.34615C16.9178 4.03846 17.4371 4.73077 17.7832 5.42308L19.514 4.38462C19.8602 4.21154 20.2063 4.38462 20.5525 4.55769C20.7255 4.73077 20.7255 4.90385 20.5525 5.07692L20.0332 6.98077L19.514 8.88462C19.514 9.23077 19.1678 9.57692 18.8217 9.40385ZM18.4755 7.84615L18.8217 6.63462V6.46154C18.3025 6.80769 17.6102 7.15385 17.0909 7.5L18.4755 7.84615ZM10.6871 17.1923L12.0717 15.8077L13.4563 14.4231C13.8025 14.0769 14.1486 14.0769 14.4948 14.4231C14.4948 14.5962 14.4948 14.7692 14.4948 14.9423V16.8462C15.1871 16.8462 15.8794 16.8462 16.5717 16.8462C17.6102 14.9423 18.6486 13.2115 19.6871 11.3077L19.3409 10.7885C19.1678 10.4423 19.3409 10.0962 19.514 9.75C19.8602 9.57692 20.2063 9.75 20.3794 9.92308L21.0717 11.1346C21.2448 11.3077 21.2448 11.6538 21.0717 11.8269L20.2063 13.3846C20.2063 13.3846 17.7832 17.5385 17.4371 18.0577C17.264 18.2308 17.0909 18.4038 16.7448 18.4038C15.8794 18.4038 15.1871 18.4038 14.3217 18.4038V20.3077C14.3217 20.6538 13.9755 21 13.6294 21C13.4563 21 13.2832 21 13.1102 20.8269C12.2448 19.9615 11.3794 19.0962 10.514 18.2308C10.3409 17.8846 10.3409 17.3654 10.6871 17.1923ZM12.0717 17.5385L12.9371 18.4038L13.1102 18.5769C13.1102 17.8846 13.1102 17.1923 13.1102 16.6731L12.0717 17.5385ZM7.91785 6.28846C7.91785 5.76923 7.57169 5.59615 7.05246 5.76923L5.32169 6.28846L3.41784 6.63462C3.24477 6.63462 3.07169 6.80769 3.07169 6.98077C2.89861 7.32692 3.07169 7.67308 3.24477 7.84615L4.97554 8.88462L4.80246 9.23077L4.28323 10.0962L3.764 11.1346C3.59092 11.3077 3.59092 11.6538 3.764 11.8269C4.97554 13.9038 6.18708 15.9808 7.39861 18.0577C7.57169 18.2308 7.74477 18.4038 8.09092 18.4038H9.12938C9.47554 18.4038 9.82169 18.0577 9.82169 17.7115C9.82169 17.3654 9.47554 17.0192 9.12938 17.0192H8.43708C7.39861 15.1154 6.36015 13.2115 5.14861 11.4808L5.49477 10.9615L6.014 9.92308L6.18708 9.57692L7.91785 10.6154C8.09092 10.7885 8.264 10.7885 8.43708 10.7885C8.78323 10.6154 8.95631 10.2692 8.95631 9.92308L8.43708 8.01923L7.91785 6.28846ZM7.05246 8.36539V8.53846L6.36015 8.19231L5.49477 7.67308H5.66784L6.87938 7.32692L7.05246 8.36539Z" fill="white"/>
</svg>
