<svg width="24" height="24" viewBox="0 0 24 24" fill="none" xmlns="http://www.w3.org/2000/svg">
<path fill-rule="evenodd" clip-rule="evenodd" d="M18.575 8.88867C19.6772 8.63856 20.5 7.65288 20.5 6.475C20.5 5.1081 19.3919 4 18.025 4C16.6581 4 15.55 5.1081 15.55 6.475C15.55 7.07937 15.7666 7.63313 16.1265 8.06288L8.06288 16.1265C7.63313 15.7666 7.07937 15.55 6.475 15.55C5.1081 15.55 4 16.6581 4 18.025C4 19.3919 5.1081 20.5 6.475 20.5C7.84191 20.5 8.95 19.3919 8.95 18.025C8.95 17.6638 8.87264 17.3207 8.7336 17.0114L17.0114 8.7336C17.1588 8.79985 17.3139 8.85213 17.475 8.88867V11.4937C17.475 11.7975 17.7212 12.0437 18.025 12.0437C18.3288 12.0437 18.575 11.7975 18.575 11.4937V8.88867ZM19.4 6.475C19.4 7.23438 18.7844 7.85 18.025 7.85C17.2656 7.85 16.65 7.23438 16.65 6.475C16.65 5.71561 17.2656 5.1 18.025 5.1C18.7844 5.1 19.4 5.71561 19.4 6.475ZM6.475 19.4C7.23438 19.4 7.85 18.7844 7.85 18.025C7.85 17.2656 7.23438 16.65 6.475 16.65C5.71561 16.65 5.1 17.2656 5.1 18.025C5.1 18.7844 5.71561 19.4 6.475 19.4Z" fill="#020A13"/>
<path fill-rule="evenodd" clip-rule="evenodd" d="M8.95 6.475C8.95 7.65288 8.1272 8.63856 7.025 8.88867V10.875C7.025 11.1788 6.77876 11.425 6.475 11.425C6.17124 11.425 5.925 11.1788 5.925 10.875V8.88867C4.82281 8.63856 4 7.65288 4 6.475C4 5.1081 5.1081 4 6.475 4C7.84191 4 8.95 5.1081 8.95 6.475ZM6.475 7.85C7.23438 7.85 7.85 7.23438 7.85 6.475C7.85 5.71561 7.23438 5.1 6.475 5.1C5.71561 5.1 5.1 5.71561 5.1 6.475C5.1 7.23438 5.71561 7.85 6.475 7.85Z" fill="#020A13"/>
<path d="M15.7109 18.4141L17.6359 20.3391C17.8507 20.5539 18.1989 20.5539 18.4137 20.3391L20.3387 18.4141C20.5535 18.1993 20.5535 17.8511 20.3387 17.6363C20.1239 17.4215 19.7757 17.4215 19.5609 17.6363L18.5748 18.6224V14.3127C18.5748 14.0089 18.3286 13.7627 18.0248 13.7627C17.721 13.7627 17.4748 14.0089 17.4748 14.3127V18.6224L16.4887 17.6363C16.2739 17.4215 15.9257 17.4215 15.7109 17.6363C15.4961 17.8511 15.4961 18.1993 15.7109 18.4141Z" fill="#020A13"/>
</svg>
