<svg width="24" height="24" viewBox="0 0 24 24" fill="none" xmlns="http://www.w3.org/2000/svg">
<path d="M11.5135 4C7.84663 4 4.87508 6.97154 4.87508 10.6376V11.3415C4.9368 11.3321 5.00007 11.3274 5.06335 11.3258C5.08835 11.3243 5.10006 11.3243 5.10006 11.3243H5.65314V10.6376C5.65314 7.4011 8.27631 4.77713 11.5136 4.77713C14.7501 4.77713 17.3741 7.4011 17.3741 10.6376V11.3251C17.9327 11.3243 17.935 11.3243 17.935 11.3243C17.9444 11.3243 17.9631 11.3258 17.9631 11.3258C18.0272 11.3274 18.0897 11.3321 18.1514 11.3407V10.6376C18.1514 6.97154 15.1799 4 11.5138 4L11.5135 4ZM5.09367 12.6579V12.6586L6.19591 12.6579V16.11L5.09367 16.1092C4.9179 16.1014 4.77807 15.9568 4.77807 15.7795V12.9876C4.77807 12.8102 4.9179 12.6657 5.09367 12.6579ZM17.9332 12.6579C18.1081 12.6657 18.248 12.8102 18.248 12.9875V15.7795C18.248 15.9568 18.1081 16.1013 17.9332 16.1091L16.8301 16.1099V12.6578L17.9332 12.6586V12.6579ZM6.58494 11.8806H5.0999V11.8814C4.49214 11.8845 4 12.3782 4 12.9875V15.7795C4 16.3888 4.49214 16.8825 5.0999 16.8864L6.58494 16.8872C6.79976 16.8872 6.97396 16.713 6.97396 16.4982V12.2689C6.97396 12.0549 6.79976 11.8806 6.58494 11.8806ZM7.76451 11.8806L7.76373 11.8814C7.54891 11.8806 7.37549 12.0548 7.37549 12.2688V16.4981C7.37549 16.7129 7.54969 16.8871 7.76451 16.8871C7.97933 16.8871 8.15276 16.7129 8.15276 16.4981V12.2688C8.15276 12.0548 7.97934 11.8806 7.76451 11.8806ZM15.2623 11.8806C15.0474 11.8806 14.8732 12.0548 14.8732 12.2688V16.4981C14.8732 16.7129 15.0474 16.8871 15.2623 16.8871C15.4771 16.8871 15.6505 16.7129 15.6505 16.4981V12.2688C15.6505 12.0548 15.4771 11.8806 15.2623 11.8806ZM16.4379 11.8798V11.8806C16.2231 11.8798 16.0528 12.0548 16.0528 12.2688V16.4981C16.0528 16.7129 16.227 16.8871 16.4411 16.8871L17.9261 16.8863C18.5346 16.8824 19.026 16.3887 19.026 15.7794V12.9874C19.026 12.3781 18.5346 11.8844 17.9261 11.8813L16.4379 11.8798ZM5.56848 17.4425V17.4433C6.10516 18.2534 6.72776 19.0439 7.58871 19.4907C8.14256 19.7774 8.77533 19.9157 9.43465 19.9805H9.43699C9.56823 20.2813 9.8682 20.493 10.2182 20.4945L11.472 20.4992L11.4759 20.5C11.9461 20.4992 12.3289 20.1188 12.3312 19.6477C12.3328 19.1751 11.9516 18.79 11.479 18.7884L10.2252 18.783L10.2221 18.7837H10.2213C9.90803 18.7837 9.63462 18.9517 9.48541 19.2032C8.90422 19.1439 8.39018 19.0306 7.9535 18.8041L7.94725 18.8009C7.38714 18.5096 6.93874 18.0276 6.51534 17.4432L5.56848 17.4425Z" fill="white"/>
</svg>
