<svg width="24" height="24" viewBox="0 0 24 24" fill="none" xmlns="http://www.w3.org/2000/svg">
<path fill-rule="evenodd" clip-rule="evenodd" d="M14.0019 4.99669C14.2297 4.76812 14.229 4.39817 14.0004 4.1704C13.7718 3.94263 13.4019 3.94328 13.1742 4.17187L11.526 5.82587C11.2215 6.13217 11.0416 6.53924 11.0188 6.96835C11.0138 6.99872 11.0113 7.02987 11.0113 7.06161C11.0113 7.09335 11.0138 7.1245 11.0188 7.15486C11.0416 7.58398 11.2215 7.99106 11.526 8.29736L13.1742 9.95139C13.4019 10.18 13.7718 10.1806 14.0004 9.95285C14.229 9.72504 14.2297 9.35513 14.0019 9.12656L12.5265 7.64589H13.699C14.3631 7.64589 14.826 7.64634 15.1865 7.67579C15.54 7.70468 15.7432 7.75853 15.8971 7.83693C16.2269 8.00498 16.495 8.27313 16.6631 8.60295C16.7415 8.75682 16.7953 8.95999 16.8242 9.31353C16.8536 9.67397 16.8541 10.1369 16.8541 10.801V14.7156C15.5207 14.9863 14.517 16.1652 14.517 17.5786C14.517 19.192 15.825 20.5 17.4384 20.5C19.0518 20.5 20.3598 19.192 20.3598 17.5786C20.3598 16.1652 19.3561 14.9863 18.0227 14.7156V10.776C18.0227 10.1427 18.0227 9.63202 17.9889 9.21841C17.9541 8.79255 17.8806 8.4185 17.7042 8.07244C17.4242 7.52275 16.9773 7.07583 16.4276 6.79575C16.0815 6.61942 15.7075 6.54591 15.2816 6.51112C14.868 6.47732 14.3573 6.47733 13.724 6.47733H12.5265L14.0019 4.99669ZM5.16856 7.06161C5.16856 6.09355 5.95333 5.30878 6.92139 5.30878C7.88945 5.30878 8.67422 6.09355 8.67422 7.06161C8.67422 8.02967 7.88945 8.81444 6.92139 8.81444C5.95333 8.81444 5.16856 8.02967 5.16856 7.06161ZM6.92139 4.14022C5.30795 4.14022 4 5.44817 4 7.06161C4 8.47495 5.00365 9.65388 6.33711 9.92457V14.7156C5.00365 14.9863 4 16.1652 4 17.5786C4 19.192 5.30795 20.5 6.92139 20.5C8.53483 20.5 9.84278 19.192 9.84278 17.5786C9.84278 16.1652 8.83911 14.9863 7.50567 14.7156V9.92457C8.83911 9.65388 9.84278 8.47495 9.84278 7.06161C9.84278 5.44817 8.53483 4.14022 6.92139 4.14022ZM5.16856 17.5786C5.16856 16.6105 5.95333 15.8258 6.92139 15.8258C7.88945 15.8258 8.67422 16.6105 8.67422 17.5786C8.67422 18.5467 7.88945 19.3314 6.92139 19.3314C5.95333 19.3314 5.16856 18.5467 5.16856 17.5786ZM17.4374 15.8258C16.4698 15.8263 15.6856 16.6109 15.6856 17.5786C15.6856 18.5467 16.4703 19.3314 17.4384 19.3314C18.4065 19.3314 19.1912 18.5467 19.1912 17.5786C19.1912 16.6105 18.4065 15.8258 17.4384 15.8258H17.4374Z" fill="white"/>
</svg>
