<svg width="24" height="24" viewBox="0 0 24 24" fill="none" xmlns="http://www.w3.org/2000/svg">
<path d="M12.3442 14.7559C10.5781 14.7556 8.86951 15.3836 7.52401 16.5276C6.17851 17.6716 5.28383 19.2569 5 21H6.06283C6.33947 19.5408 7.11676 18.2239 8.26058 17.2766C9.40441 16.3292 10.843 15.8108 12.3282 15.8108C13.8134 15.8108 15.252 16.3292 16.3959 17.2766C17.5397 18.2239 18.317 19.5408 18.5936 21H19.6565C19.3735 19.2623 18.4835 17.6812 17.1446 16.5379C15.8057 15.3946 14.1048 14.7632 12.3442 14.7559Z" fill="white"/>
<path d="M12.3439 13.693C13.4651 13.6927 14.5516 13.3037 15.4182 12.5922C16.2847 11.8806 16.8778 10.8906 17.0962 9.79088C17.3147 8.69112 17.1451 7.54963 16.6163 6.5609C16.0875 5.57216 15.2323 4.79736 14.1963 4.36851C13.1603 3.93965 12.0077 3.88328 10.9348 4.20899C9.86186 4.5347 8.93508 5.22234 8.31234 6.15475C7.6896 7.08717 7.40941 8.20666 7.51953 9.32249C7.62965 10.4383 8.12325 11.4815 8.91624 12.2741C9.82573 13.1825 11.0585 13.6928 12.3439 13.693ZM12.3439 5.05752C13.0937 5.05647 13.827 5.27793 14.4509 5.69387C15.0748 6.1098 15.5613 6.70151 15.8487 7.39407C16.1362 8.08664 16.2117 8.84892 16.0656 9.58441C15.9196 10.3199 15.5586 10.9955 15.0284 11.5257C14.4982 12.056 13.8226 12.4169 13.0871 12.563C12.3516 12.709 11.5893 12.6335 10.8967 12.3461C10.2042 12.0586 9.61248 11.5722 9.19654 10.9483C8.7806 10.3243 8.55914 9.59105 8.56019 8.8412C8.563 7.83857 8.96254 6.8778 9.67151 6.16883C10.3805 5.45986 11.3412 5.06032 12.3439 5.05752Z" fill="white"/>
</svg>
