<svg width="70" height="70" viewBox="0 0 70 70" fill="none" xmlns="http://www.w3.org/2000/svg">
<path d="M35 0C15.6333 0 0 15.6333 0 35C0 54.3667 15.6333 70 35 70C54.3666 70 70 54.3667 70 35C70 15.6333 54.3666 0 35 0ZM34.9999 8.89094C42.2096 8.89094 48.0544 14.7357 48.0544 21.9454C48.0544 29.1553 42.2096 35 34.9999 35C27.79 35 21.9453 29.1553 21.9453 21.9454C21.9453 14.7357 27.79 8.89094 34.9999 8.89094ZM34.9999 62.2222C27.6123 62.2222 20.9072 59.2599 15.9984 54.4651C15.031 53.5201 14.6671 52.1151 14.9904 50.802L15.7408 47.7539C16.9989 42.47 21.6715 38.7789 27.1034 38.7789H42.8966C48.3288 38.7789 53.0008 42.4693 54.2589 47.7539L54.9834 50.8958C55.2837 52.198 54.9118 53.5808 53.9535 54.5123C49.049 59.2794 42.3634 62.2222 34.9999 62.2222Z" fill="#B3B4BA"/>
</svg>
