<svg width="655" height="1024" viewBox="0 0 655 1024" fill="none" xmlns="http://www.w3.org/2000/svg">
<rect width="655" height="1024" fill="#D5EFFF"/>
<path d="M209.863 442.285C235.822 439.125 254.304 415.52 251.144 389.561C247.985 363.602 224.379 345.119 198.42 348.279C172.461 351.439 153.978 375.044 157.138 401.003C160.298 426.962 183.903 445.445 209.863 442.285Z" fill="#EBEBEB"/>
<path d="M229.707 420.848C243.824 406.73 243.824 383.841 229.707 369.724C215.589 355.606 192.7 355.606 178.583 369.724C164.465 383.841 164.465 406.73 178.583 420.848C192.7 434.965 215.589 434.965 229.707 420.848Z" fill="white"/>
<path d="M204.14 421.12C218.406 421.12 229.97 409.556 229.97 395.29C229.97 381.024 218.406 369.46 204.14 369.46C189.874 369.46 178.31 381.024 178.31 395.29C178.31 409.556 189.874 421.12 204.14 421.12Z" fill="#EBEBEB"/>
<path d="M207.455 409.172C215.128 407.348 219.87 399.65 218.046 391.977C216.222 384.304 208.524 379.562 200.851 381.386C193.178 383.21 188.436 390.908 190.26 398.581C192.084 406.254 199.782 410.996 207.455 409.172Z" fill="white"/>
<path d="M197.69 395.29C197.692 396.565 198.072 397.811 198.782 398.871C199.492 399.93 200.5 400.755 201.679 401.242C202.857 401.729 204.154 401.855 205.404 401.605C206.655 401.355 207.803 400.74 208.704 399.837C209.605 398.935 210.219 397.786 210.467 396.535C210.715 395.284 210.587 393.987 210.098 392.809C209.61 391.631 208.783 390.625 207.722 389.916C206.662 389.208 205.415 388.83 204.14 388.83C203.292 388.83 202.453 388.997 201.669 389.322C200.886 389.647 200.175 390.123 199.576 390.723C198.977 391.323 198.502 392.035 198.178 392.819C197.855 393.602 197.689 394.442 197.69 395.29Z" fill="#EBEBEB"/>
<path d="M139.475 329.144L138.004 330.615L199.197 391.808L200.668 390.337L139.475 329.144Z" fill="#A6A6A6"/>
<path d="M196.14 393.14L204.14 395.29L202 387.29L196.14 393.14Z" fill="#A6A6A6"/>
<path d="M128.5 325.9L139.97 337.37L148.97 340.12L146.22 331.12L134.75 319.64L137.5 328.64L128.5 325.9Z" fill="#A6A6A6"/>
<path d="M416.07 317.39L419.39 322.34L425.13 323.97L421.45 328.65L421.67 334.61L416.07 332.56L410.48 334.61L410.7 328.65L407.02 323.97L412.75 322.34L416.07 317.39Z" fill="#EBEBEB"/>
<path d="M441.67 317.39L444.99 322.34L450.72 323.97L447.04 328.65L447.26 334.61L441.67 332.56L436.08 334.61L436.3 328.65L432.62 323.97L438.35 322.34L441.67 317.39Z" fill="#EBEBEB"/>
<path d="M467.26 317.39L470.58 322.34L476.31 323.97L472.63 328.65L472.86 334.61L467.26 332.56L461.67 334.61L461.89 328.65L458.21 323.97L463.94 322.34L467.26 317.39Z" fill="#EBEBEB"/>
<path d="M492.86 317.39L496.18 322.34L501.91 323.97L498.23 328.65L498.45 334.61L492.86 332.56L487.26 334.61L487.49 328.65L483.81 323.97L489.54 322.34L492.86 317.39Z" fill="#EBEBEB"/>
<path d="M512.33 335.33L512.58 328.82L508.58 323.69L514.85 321.91L518.48 316.49L522.12 321.91L528.39 323.69L524.39 328.82L524.63 335.33L518.51 333.09L512.33 335.33ZM518.45 332L523.52 333.86L523.32 328.47L526.65 324.22L521.46 322.75L518.46 318.27L515.46 322.75L510.27 324.22L513.6 328.47L513.4 333.86L518.45 332Z" fill="#EBEBEB"/>
<path d="M518.45 332.56V317.39L515.13 322.34L509.4 323.97L513.08 328.65L512.86 334.61L518.45 332.56Z" fill="#EBEBEB"/>
<path fill-rule="evenodd" clip-rule="evenodd" d="M486.49 526.39C485.22 525.6 484.11 524.45 482.42 524.62C481.77 524.69 481.91 524.15 481.91 523.79C481.91 517.417 481.883 511.05 481.83 504.69C481.83 504.23 481.83 503.84 482.36 503.59C487.22 501.12 489.31 496.29 492.28 492.15C493.799 490.095 494.889 487.757 495.487 485.273C496.085 482.789 496.178 480.21 495.76 477.69C495.55 476.26 496.21 475.61 497.5 475.32C499.06 474.96 500.61 475.38 501.14 476.45C502.551 479.044 503.501 481.862 503.95 484.78C504.24 487.2 503.38 489.55 503.09 491.94C502.87 493.69 502.47 495.42 502.14 497.19C502.57 497.5 503.06 497.34 503.52 497.35H519.66C521.93 497.35 523.04 497.99 523.36 499.49C523.537 500.415 523.405 501.372 522.986 502.216C522.567 503.059 521.884 503.742 521.04 504.16C520.63 504.37 519.91 504.16 519.86 504.82C519.81 505.48 520.56 505.39 520.93 505.65C522.93 506.98 522.53 509.73 520.29 511.34C519.74 511.72 518.69 511.54 518.67 512.34C518.67 512.97 519.67 512.96 520.09 513.41C521.67 514.96 520.9 517.86 518.55 519.04C518.228 519.141 517.914 519.264 517.61 519.41C517.34 519.59 517.08 519.79 517.61 520.16C519.94 521.81 519.9 524.16 517.56 525.83L516.86 526.33C516.012 526.847 515.017 527.069 514.03 526.96C505.59 527.007 497.153 527.037 488.72 527.05C488.323 527.094 487.921 527.058 487.538 526.945C487.156 526.832 486.799 526.643 486.49 526.39Z" fill="#EBEBEB"/>
<path fill-rule="evenodd" clip-rule="evenodd" d="M462.46 515.24C462.46 511.24 462.46 507.15 462.4 503.1C462.4 502.28 462.48 501.87 463.49 501.88C468.43 501.933 473.363 501.933 478.29 501.88C479.29 501.88 479.41 502.2 479.41 503.06C479.41 511.2 479.437 519.34 479.49 527.48C479.49 528.48 479.22 528.81 478.18 528.8C473.4 528.8 468.61 528.8 463.82 528.86C462.63 528.86 462.47 528.46 462.48 527.42C462.52 523.33 462.47 519.29 462.46 515.24Z" fill="#EBEBEB"/>
<path d="M275.71 708.94H144.71C144.015 708.94 143.349 708.664 142.857 708.173C142.366 707.681 142.09 707.015 142.09 706.32V690.71C142.09 690.66 142.09 690.61 142.09 690.56C142.09 690.51 142.09 690.38 142.09 690.28L158 632.13L137.49 505L130.64 502.62C130.041 502.374 129.554 501.914 129.274 501.33C128.994 500.746 128.94 500.079 129.123 499.458C129.305 498.836 129.712 498.305 130.263 497.965C130.815 497.626 131.473 497.503 132.11 497.62L140.56 500.47C141.039 500.61 141.467 500.884 141.795 501.259C142.123 501.635 142.336 502.097 142.41 502.59L163.25 631.79C163.305 632.081 163.305 632.379 163.25 632.67L147.87 688.39L269.87 697.06C270.547 697.107 271.18 697.411 271.64 697.91L277.64 704.57C277.978 704.946 278.199 705.412 278.278 705.911C278.357 706.41 278.29 706.921 278.085 707.383C277.88 707.845 277.546 708.238 277.122 708.514C276.699 708.79 276.205 708.938 275.7 708.94H275.71ZM147.36 703.71H269.81L268.46 702.21L147.36 693.6V703.71Z" fill="#C7C7C7"/>
<path d="M323.66 546.31H147.12C146.763 546.332 146.405 546.281 146.069 546.159C145.732 546.038 145.424 545.849 145.164 545.604C144.903 545.359 144.695 545.063 144.553 544.735C144.412 544.407 144.338 544.053 144.338 543.695C144.338 543.337 144.412 542.983 144.553 542.655C144.695 542.327 144.903 542.031 145.164 541.786C145.424 541.541 145.732 541.352 146.069 541.231C146.405 541.109 146.763 541.058 147.12 541.08H323.66C324.017 541.058 324.375 541.109 324.711 541.231C325.048 541.352 325.356 541.541 325.616 541.786C325.877 542.031 326.085 542.327 326.227 542.655C326.369 542.983 326.442 543.337 326.442 543.695C326.442 544.053 326.369 544.407 326.227 544.735C326.085 545.063 325.877 545.359 325.616 545.604C325.356 545.849 325.048 546.038 324.711 546.159C324.375 546.281 324.017 546.332 323.66 546.31Z" fill="#C7C7C7"/>
<path d="M160.66 633.06C160.444 633.037 160.244 632.935 160.099 632.773C159.954 632.612 159.874 632.402 159.874 632.185C159.874 631.968 159.954 631.758 160.099 631.597C160.244 631.435 160.444 631.333 160.66 631.31L293.28 624.22L319.39 543.43C319.425 543.321 319.482 543.22 319.556 543.132C319.63 543.045 319.721 542.973 319.824 542.921C319.926 542.869 320.037 542.838 320.152 542.829C320.266 542.82 320.381 542.834 320.49 542.87C320.599 542.909 320.699 542.969 320.784 543.048C320.87 543.126 320.938 543.221 320.986 543.326C321.033 543.432 321.059 543.546 321.062 543.662C321.064 543.777 321.043 543.893 321 544L294.7 625.36C294.647 625.529 294.545 625.678 294.405 625.787C294.266 625.896 294.097 625.96 293.92 625.97L160.71 633.05L160.66 633.06Z" fill="#C7C7C7"/>
<path d="M296.16 618.64H158.24C158.009 618.64 157.788 618.548 157.625 618.385C157.462 618.222 157.37 618.001 157.37 617.77C157.37 617.539 157.462 617.318 157.625 617.155C157.788 616.992 158.009 616.9 158.24 616.9H296.16C296.391 616.9 296.612 616.992 296.775 617.155C296.938 617.318 297.03 617.539 297.03 617.77C297.03 618.001 296.938 618.222 296.775 618.385C296.612 618.548 296.391 618.64 296.16 618.64Z" fill="#C7C7C7"/>
<path d="M299.67 608H156.61C156.379 608 156.158 607.908 155.995 607.745C155.832 607.582 155.74 607.361 155.74 607.13C155.74 606.899 155.832 606.678 155.995 606.515C156.158 606.352 156.379 606.26 156.61 606.26H299.67C299.901 606.26 300.122 606.352 300.285 606.515C300.448 606.678 300.54 606.899 300.54 607.13C300.54 607.361 300.448 607.582 300.285 607.745C300.122 607.908 299.901 608 299.67 608Z" fill="#C7C7C7"/>
<path d="M302.91 597.43H155C154.784 597.407 154.584 597.305 154.439 597.143C154.294 596.982 154.214 596.772 154.214 596.555C154.214 596.338 154.294 596.128 154.439 595.967C154.584 595.805 154.784 595.703 155 595.68H302.91C303.033 595.667 303.157 595.68 303.274 595.718C303.392 595.756 303.5 595.818 303.592 595.9C303.684 595.983 303.757 596.084 303.807 596.197C303.858 596.309 303.884 596.432 303.884 596.555C303.884 596.678 303.858 596.801 303.807 596.913C303.757 597.026 303.684 597.127 303.592 597.21C303.5 597.292 303.392 597.354 303.274 597.392C303.157 597.43 303.033 597.443 302.91 597.43Z" fill="#C7C7C7"/>
<path d="M306.43 586.82H153.37C153.247 586.833 153.123 586.82 153.006 586.782C152.888 586.744 152.78 586.682 152.688 586.6C152.596 586.517 152.523 586.416 152.473 586.303C152.422 586.191 152.396 586.068 152.396 585.945C152.396 585.822 152.422 585.699 152.473 585.587C152.523 585.474 152.596 585.373 152.688 585.29C152.78 585.208 152.888 585.146 153.006 585.108C153.123 585.07 153.247 585.057 153.37 585.07H306.43C306.646 585.093 306.846 585.195 306.991 585.357C307.136 585.518 307.216 585.728 307.216 585.945C307.216 586.162 307.136 586.372 306.991 586.533C306.846 586.695 306.646 586.797 306.43 586.82Z" fill="#C7C7C7"/>
<path d="M309.78 576.21H151.78C151.549 576.21 151.328 576.118 151.165 575.955C151.002 575.792 150.91 575.571 150.91 575.34C150.91 575.109 151.002 574.888 151.165 574.725C151.328 574.562 151.549 574.47 151.78 574.47H309.78C310.011 574.47 310.232 574.562 310.395 574.725C310.558 574.888 310.65 575.109 310.65 575.34C310.65 575.571 310.558 575.792 310.395 575.955C310.232 576.118 310.011 576.21 309.78 576.21Z" fill="#C7C7C7"/>
<path d="M313.38 565.6H150.12C149.889 565.6 149.668 565.508 149.505 565.345C149.342 565.182 149.25 564.961 149.25 564.73C149.25 564.499 149.342 564.278 149.505 564.115C149.668 563.952 149.889 563.86 150.12 563.86H313.38C313.611 563.86 313.832 563.952 313.995 564.115C314.158 564.278 314.25 564.499 314.25 564.73C314.25 564.961 314.158 565.182 313.995 565.345C313.832 565.508 313.611 565.6 313.38 565.6Z" fill="#C7C7C7"/>
<path d="M316.81 555H148.5C148.269 555 148.048 554.908 147.885 554.745C147.722 554.582 147.63 554.361 147.63 554.13C147.63 553.899 147.722 553.678 147.885 553.515C148.048 553.352 148.269 553.26 148.5 553.26H316.81C317.041 553.26 317.262 553.352 317.425 553.515C317.588 553.678 317.68 553.899 317.68 554.13C317.68 554.361 317.588 554.582 317.425 554.745C317.262 554.908 317.041 555 316.81 555Z" fill="#C7C7C7"/>
<path d="M172.57 632C172.349 632.001 172.137 631.917 171.975 631.767C171.814 631.616 171.715 631.41 171.7 631.19L165 543.76C164.99 543.646 165.004 543.532 165.039 543.423C165.074 543.314 165.131 543.214 165.205 543.127C165.28 543.041 165.37 542.97 165.473 542.919C165.575 542.868 165.686 542.838 165.8 542.83C166.03 542.816 166.256 542.891 166.431 543.041C166.607 543.19 166.717 543.401 166.74 543.63L173.44 631C173.457 631.229 173.382 631.456 173.232 631.63C173.082 631.804 172.869 631.912 172.64 631.93L172.57 632Z" fill="#C7C7C7"/>
<path d="M280.7 626.25C280.627 626.26 280.553 626.26 280.48 626.25C280.257 626.189 280.066 626.043 279.95 625.842C279.834 625.642 279.802 625.404 279.86 625.18L302.07 543.5C302.131 543.277 302.277 543.086 302.478 542.97C302.678 542.854 302.916 542.822 303.14 542.88C303.25 542.91 303.354 542.962 303.444 543.032C303.535 543.102 303.61 543.189 303.667 543.288C303.724 543.388 303.76 543.497 303.774 543.611C303.789 543.724 303.78 543.84 303.75 543.95L281.55 625.63C281.493 625.81 281.379 625.968 281.226 626.079C281.074 626.191 280.889 626.25 280.7 626.25Z" fill="#C7C7C7"/>
<path d="M186.5 631.3C186.272 631.297 186.053 631.206 185.891 631.046C185.729 630.885 185.635 630.668 185.63 630.44L183.47 543.72C183.467 543.489 183.554 543.266 183.713 543.098C183.872 542.93 184.089 542.83 184.32 542.82C184.548 542.82 184.768 542.908 184.932 543.067C185.096 543.226 185.192 543.442 185.2 543.67L187.35 630.4C187.355 630.632 187.269 630.856 187.11 631.025C186.951 631.193 186.732 631.292 186.5 631.3Z" fill="#C7C7C7"/>
<path d="M200.8 630.52C200.686 630.517 200.573 630.492 200.469 630.446C200.364 630.4 200.27 630.334 200.191 630.251C200.112 630.168 200.05 630.071 200.009 629.964C199.967 629.858 199.947 629.744 199.95 629.63L201.55 543.68C201.555 543.452 201.649 543.235 201.811 543.074C201.973 542.914 202.192 542.823 202.42 542.82C202.534 542.823 202.647 542.848 202.751 542.894C202.856 542.94 202.95 543.006 203.029 543.089C203.108 543.172 203.17 543.269 203.212 543.376C203.253 543.482 203.273 543.596 203.27 543.71L201.67 629.71C201.655 629.93 201.556 630.136 201.395 630.287C201.233 630.437 201.021 630.521 200.8 630.52Z" fill="#C7C7C7"/>
<path d="M265.48 626.93H265.31C265.088 626.886 264.892 626.757 264.765 626.57C264.637 626.383 264.589 626.153 264.63 625.93L281.5 543.57C281.55 543.352 281.681 543.16 281.867 543.034C282.052 542.908 282.278 542.857 282.5 542.89C282.721 542.936 282.915 543.066 283.042 543.253C283.169 543.439 283.218 543.668 283.18 543.89L266.31 626.25C266.266 626.439 266.161 626.608 266.011 626.731C265.861 626.854 265.674 626.924 265.48 626.93Z" fill="#C7C7C7"/>
<path d="M248.14 628H248C247.773 627.961 247.57 627.834 247.436 627.647C247.301 627.46 247.245 627.228 247.28 627L260.94 543.6C260.979 543.374 261.106 543.172 261.294 543.039C261.481 542.906 261.713 542.852 261.94 542.89C262.053 542.908 262.161 542.949 262.258 543.009C262.355 543.069 262.439 543.148 262.505 543.241C262.571 543.334 262.618 543.44 262.643 543.551C262.668 543.662 262.67 543.778 262.65 543.89L249 627.24C248.971 627.449 248.869 627.64 248.711 627.779C248.553 627.919 248.351 627.997 248.14 628Z" fill="#C7C7C7"/>
<path d="M215.44 629.69H215.37C215.256 629.682 215.145 629.652 215.043 629.601C214.94 629.55 214.85 629.479 214.775 629.393C214.701 629.306 214.644 629.206 214.609 629.097C214.574 628.988 214.56 628.874 214.57 628.76L220.94 543.63C220.957 543.399 221.065 543.185 221.241 543.034C221.416 542.883 221.644 542.808 221.875 542.825C222.106 542.842 222.32 542.95 222.471 543.126C222.622 543.301 222.697 543.529 222.68 543.76L216.31 628.89C216.29 629.108 216.19 629.31 216.029 629.458C215.869 629.606 215.658 629.688 215.44 629.69Z" fill="#C7C7C7"/>
<path d="M232.59 628.58H232.49C232.373 628.566 232.26 628.53 232.158 628.472C232.055 628.414 231.966 628.336 231.894 628.243C231.822 628.149 231.77 628.043 231.74 627.929C231.71 627.815 231.703 627.696 231.72 627.58L241.06 543.58C241.072 543.466 241.107 543.356 241.162 543.256C241.217 543.156 241.291 543.068 241.381 542.996C241.47 542.925 241.572 542.871 241.682 542.839C241.791 542.808 241.906 542.798 242.02 542.81C242.134 542.822 242.244 542.857 242.344 542.912C242.444 542.967 242.532 543.041 242.604 543.131C242.675 543.22 242.729 543.322 242.761 543.432C242.792 543.541 242.802 543.656 242.79 543.77L233.45 627.77C233.435 627.988 233.338 628.193 233.179 628.343C233.019 628.494 232.809 628.578 232.59 628.58Z" fill="#C7C7C7"/>
<path d="M161.71 722.56C167.106 722.56 171.48 718.186 171.48 712.79C171.48 707.394 167.106 703.02 161.71 703.02C156.314 703.02 151.94 707.394 151.94 712.79C151.94 718.186 156.314 722.56 161.71 722.56Z" fill="#263238"/>
<path d="M166.15 712.79C166.15 713.668 165.89 714.527 165.402 715.257C164.914 715.987 164.22 716.556 163.409 716.892C162.598 717.228 161.705 717.316 160.844 717.145C159.983 716.973 159.191 716.551 158.57 715.93C157.95 715.309 157.527 714.517 157.355 713.656C157.184 712.795 157.272 711.902 157.608 711.091C157.944 710.28 158.513 709.586 159.243 709.098C159.973 708.61 160.832 708.35 161.71 708.35C162.888 708.35 164.017 708.818 164.85 709.65C165.682 710.483 166.15 711.612 166.15 712.79Z" fill="#EBEBEB"/>
<path d="M249.14 722.56C254.536 722.56 258.91 718.186 258.91 712.79C258.91 707.394 254.536 703.02 249.14 703.02C243.744 703.02 239.37 707.394 239.37 712.79C239.37 718.186 243.744 722.56 249.14 722.56Z" fill="#263238"/>
<path d="M253.58 712.79C253.58 713.668 253.32 714.527 252.832 715.257C252.344 715.987 251.65 716.556 250.839 716.892C250.028 717.228 249.135 717.316 248.274 717.145C247.413 716.973 246.621 716.551 246 715.93C245.38 715.309 244.957 714.517 244.785 713.656C244.614 712.795 244.702 711.902 245.038 711.091C245.374 710.28 245.943 709.586 246.673 709.098C247.403 708.61 248.262 708.35 249.14 708.35C250.318 708.35 251.447 708.818 252.28 709.65C253.112 710.483 253.58 711.612 253.58 712.79Z" fill="#EBEBEB"/>
<path d="M137.89 505.53C137.528 505.531 137.169 505.467 136.83 505.34L123.07 500.12C122.702 499.98 122.364 499.769 122.078 499.499C121.791 499.229 121.56 498.905 121.399 498.545C121.237 498.186 121.148 497.798 121.136 497.404C121.124 497.011 121.19 496.618 121.33 496.25C121.47 495.882 121.681 495.544 121.951 495.258C122.221 494.971 122.545 494.74 122.905 494.578C123.264 494.417 123.652 494.328 124.046 494.316C124.439 494.304 124.832 494.37 125.2 494.51L139 499.73C139.653 499.981 140.198 500.453 140.54 501.064C140.882 501.675 141 502.386 140.873 503.074C140.746 503.763 140.382 504.385 139.845 504.833C139.307 505.282 138.63 505.528 137.93 505.53H137.89Z" fill="#0F9BF2"/>
<path d="M126.58 722.56C255.58 721.95 400.38 721.94 529.42 722.56C400.42 723.18 255.62 723.17 126.58 722.56Z" fill="#263238"/>
<path d="M412.52 339.71H243.46C241.193 339.731 238.953 340.198 236.867 341.085C234.781 341.972 232.89 343.261 231.302 344.878C229.714 346.496 228.46 348.41 227.612 350.513C226.764 352.615 226.339 354.863 226.36 357.13V705.13C226.32 709.707 228.099 714.112 231.305 717.379C234.511 720.645 238.883 722.505 243.46 722.55H412.52C417.099 722.505 421.473 720.646 424.682 717.38C427.892 714.114 429.675 709.709 429.64 705.13V357.13C429.677 352.55 427.895 348.143 424.685 344.877C421.475 341.611 417.1 339.752 412.52 339.71ZM418.94 694.38C418.94 703.54 412.08 710.95 403.62 710.95H252.38C243.9 710.95 237.04 703.54 237.04 694.38V370.32C237.04 351.66 243.9 350.75 252.38 350.75H282.68C284.44 350.75 285.88 352.75 285.88 355.23V356.3C285.88 362.11 289.06 362.13 292.96 362.13H363C366.94 362.13 370.1 362.13 370.1 356.3V355.23C370.1 352.75 371.52 350.75 373.31 350.75H403.6C412.06 350.75 418.92 353.23 418.92 370.32L418.94 694.38Z" fill="#263238"/>
<path d="M419 370.61V694.67C419 703.83 412.14 711.24 403.68 711.24H252.39C243.91 711.24 237.05 703.83 237.05 694.67V370.61C237.05 352 243.91 351 252.39 351H282.69C284.45 351 285.89 353 285.89 355.48V356.55C285.89 362.36 289.07 362.38 292.97 362.38H363C366.94 362.38 370.1 362.38 370.1 356.55V355.52C370.1 353.04 371.52 351.04 373.31 351.04H403.6C412.09 351 419 353.52 419 370.61Z" fill="white"/>
<path d="M337.55 354.87H318.44C318.127 354.87 317.827 354.746 317.606 354.524C317.384 354.303 317.26 354.003 317.26 353.69C317.26 353.377 317.384 353.077 317.606 352.856C317.827 352.634 318.127 352.51 318.44 352.51H337.55C337.863 352.51 338.163 352.634 338.384 352.856C338.606 353.077 338.73 353.377 338.73 353.69C338.73 354.003 338.606 354.303 338.384 354.524C338.163 354.746 337.863 354.87 337.55 354.87Z" fill="white"/>
<path d="M277.45 358L277.16 358.29L276.99 358.46C276.241 357.715 275.227 357.297 274.17 357.297C273.113 357.297 272.099 357.715 271.35 358.46C271.292 358.408 271.238 358.351 271.19 358.29C271.09 358.2 271 358.1 270.9 358C271.03 357.9 271.15 357.78 271.27 357.68C271.532 357.461 271.821 357.276 272.13 357.13C272.487 356.95 272.867 356.822 273.26 356.75L273.83 356.68H274.33H274.71C275.052 356.717 275.388 356.797 275.71 356.92C275.956 357.01 276.193 357.12 276.42 357.25C276.655 357.389 276.879 357.546 277.09 357.72L277.4 358H277.45Z" fill="#A6A6A6"/>
<path d="M272.27 359.41C272.12 359.25 271.97 359.1 271.81 358.95C272.119 358.639 272.486 358.393 272.89 358.225C273.294 358.057 273.727 357.97 274.165 357.97C274.603 357.97 275.036 358.057 275.44 358.225C275.845 358.393 276.211 358.639 276.52 358.95L276.06 359.41C275.557 358.907 274.876 358.625 274.165 358.625C273.454 358.625 272.773 358.907 272.27 359.41Z" fill="#A6A6A6"/>
<path d="M275.6 359.87L275.14 360.33C274.882 360.075 274.533 359.932 274.17 359.932C273.807 359.932 273.458 360.075 273.2 360.33C273.04 360.18 272.89 360.02 272.74 359.87C272.926 359.68 273.149 359.528 273.394 359.425C273.64 359.321 273.904 359.268 274.17 359.268C274.436 359.268 274.7 359.321 274.946 359.425C275.191 359.528 275.414 359.68 275.6 359.87Z" fill="#A6A6A6"/>
<path d="M274.58 360.75C274.58 360.859 274.537 360.963 274.46 361.04C274.383 361.117 274.279 361.16 274.17 361.16C274.115 361.161 274.061 361.152 274.01 361.132C273.959 361.112 273.913 361.082 273.874 361.043C273.834 361.005 273.803 360.96 273.782 360.909C273.761 360.859 273.75 360.805 273.75 360.75C273.75 360.639 273.794 360.532 273.873 360.453C273.952 360.374 274.059 360.33 274.17 360.33C274.225 360.33 274.279 360.341 274.329 360.362C274.38 360.383 274.425 360.414 274.464 360.454C274.502 360.493 274.532 360.539 274.552 360.59C274.572 360.641 274.581 360.695 274.58 360.75Z" fill="#A6A6A6"/>
<path d="M248.9 358.91C248.9 358.671 248.971 358.437 249.104 358.238C249.237 358.039 249.426 357.884 249.647 357.792C249.868 357.701 250.111 357.677 250.346 357.723C250.581 357.77 250.796 357.885 250.966 358.054C251.135 358.224 251.25 358.439 251.297 358.674C251.343 358.909 251.32 359.152 251.228 359.373C251.136 359.594 250.981 359.783 250.782 359.916C250.583 360.049 250.349 360.12 250.11 360.12C249.789 360.12 249.481 359.993 249.254 359.766C249.028 359.539 248.9 359.231 248.9 358.91Z" fill="#A6A6A6"/>
<path d="M252.7 358.91C252.7 358.671 252.771 358.437 252.904 358.238C253.037 358.039 253.226 357.884 253.447 357.792C253.668 357.701 253.911 357.677 254.146 357.723C254.381 357.77 254.596 357.885 254.766 358.054C254.935 358.224 255.05 358.439 255.097 358.674C255.143 358.909 255.119 359.152 255.028 359.373C254.936 359.594 254.781 359.783 254.582 359.916C254.383 360.049 254.149 360.12 253.91 360.12C253.751 360.12 253.594 360.089 253.447 360.028C253.3 359.967 253.167 359.878 253.054 359.766C252.942 359.653 252.853 359.52 252.792 359.373C252.731 359.226 252.7 359.069 252.7 358.91Z" fill="#A6A6A6"/>
<path d="M256.5 358.91C256.5 358.67 256.571 358.436 256.705 358.237C256.838 358.038 257.028 357.882 257.249 357.791C257.471 357.7 257.715 357.677 257.95 357.724C258.185 357.772 258.4 357.888 258.569 358.058C258.738 358.228 258.852 358.445 258.898 358.68C258.944 358.916 258.918 359.159 258.825 359.38C258.732 359.601 258.575 359.789 258.375 359.921C258.175 360.053 257.94 360.122 257.7 360.12C257.542 360.12 257.385 360.089 257.238 360.028C257.092 359.967 256.959 359.877 256.848 359.765C256.736 359.653 256.648 359.519 256.588 359.372C256.529 359.226 256.499 359.068 256.5 358.91Z" fill="#A6A6A6"/>
<path d="M260.3 358.91C260.3 358.67 260.371 358.436 260.505 358.237C260.638 358.038 260.828 357.882 261.049 357.791C261.271 357.7 261.515 357.677 261.75 357.724C261.985 357.772 262.2 357.888 262.369 358.058C262.538 358.228 262.652 358.445 262.698 358.68C262.744 358.916 262.718 359.159 262.625 359.38C262.532 359.601 262.375 359.789 262.175 359.921C261.975 360.053 261.74 360.122 261.5 360.12C261.342 360.12 261.185 360.089 261.038 360.028C260.892 359.967 260.76 359.877 260.648 359.765C260.536 359.653 260.448 359.519 260.388 359.372C260.329 359.226 260.299 359.068 260.3 358.91Z" fill="#A6A6A6"/>
<path d="M264.09 358.91C264.09 358.671 264.161 358.437 264.294 358.238C264.427 358.039 264.616 357.884 264.837 357.792C265.058 357.701 265.301 357.677 265.536 357.723C265.771 357.77 265.986 357.885 266.156 358.054C266.325 358.224 266.44 358.439 266.487 358.674C266.533 358.909 266.51 359.152 266.418 359.373C266.326 359.594 266.171 359.783 265.972 359.916C265.773 360.049 265.539 360.12 265.3 360.12C264.979 360.12 264.671 359.993 264.444 359.766C264.218 359.539 264.09 359.231 264.09 358.91Z" fill="#A6A6A6"/>
<path d="M405.3 361.55H395.48V357H405.3V361.55ZM395.98 361.05H404.8V357.5H396L395.98 361.05Z" fill="#A6A6A6"/>
<path d="M402.63 357.77H396.3V360.77H402.63V357.77Z" fill="#A6A6A6"/>
<path d="M406.17 358.06H405.3V360.49H406.17V358.06Z" fill="#A6A6A6"/>
<path d="M338.45 337.12H317.56V386.27H338.45V337.12Z" fill="#0F9BF2"/>
<path d="M338.44 386.26C338.44 386.26 336.44 396.26 328 396.26C319.56 396.26 317.56 386.26 317.56 386.26H338.44Z" fill="#0F9BF2"/>
<path opacity="0.1" d="M338.44 386.26C338.44 386.26 336.44 396.26 328 396.26C319.56 396.26 317.56 386.26 317.56 386.26H338.44Z" fill="black"/>
<path d="M317.55 386.27H296.66L298.79 337.12H317.55V386.27Z" fill="white"/>
<path d="M317.55 386.27L296.66 386.4H296.52C296.52 386.4 298.52 337.18 298.52 337.11V336.87H298.75H317.51H317.72C317.8 337.06 317.59 361.5 317.64 361.7L317.51 386.22L317.55 386.27ZM317.55 386.27L317.42 361.64L317.35 337.12L317.55 337.32L298.79 337.37L299.04 337.13C298.97 337.13 296.98 386.85 296.66 386.13L317.55 386.26V386.27Z" fill="#263238"/>
<path d="M317.56 386.26C317.56 386.26 315.56 396.26 307.1 396.26C298.64 396.26 296.66 386.26 296.66 386.26H317.56Z" fill="#EBEBEB"/>
<path d="M296.66 386.27H275.77L280.03 337.12H298.79L296.66 386.27Z" fill="#0F9BF2"/>
<path d="M296.66 386.26C296.66 386.26 294.66 396.26 286.21 396.26C277.76 396.26 275.77 386.26 275.77 386.26H296.66Z" fill="#0F9BF2"/>
<path opacity="0.1" d="M296.66 386.26C296.66 386.26 294.66 396.26 286.21 396.26C277.76 396.26 275.77 386.26 275.77 386.26H296.66Z" fill="black"/>
<path d="M275.76 386.27H254.87L261.27 337.12H280.03L275.76 386.27Z" fill="white"/>
<path d="M275.76 386.27L254.87 386.4H254.72C254.72 386.4 261 337.17 261 337.09V336.87H261.22H279.98H280.2V337.09L278 361.76L275.74 386.27H275.76ZM275.76 386.27L277.76 361.63L279.82 337.1L280.02 337.32L261.26 337.37L261.5 337.15C261.43 337.15 255.15 386.89 254.86 386.15L275.75 386.28L275.76 386.27Z" fill="#263238"/>
<path d="M275.76 386.26C275.76 386.26 273.76 396.26 265.31 396.26C256.86 396.26 254.87 386.26 254.87 386.26H275.76Z" fill="#EBEBEB"/>
<path d="M254.87 386.27H233.98L242.51 337.12H261.26L254.87 386.27Z" fill="#0F9BF2"/>
<path d="M254.87 386.26C254.87 386.26 252.87 396.26 244.43 396.26C235.99 396.26 233.97 386.26 233.97 386.26H254.87Z" fill="#0F9BF2"/>
<path opacity="0.1" d="M254.87 386.26C254.87 386.26 252.87 396.26 244.43 396.26C235.99 396.26 233.97 386.26 233.97 386.26H254.87Z" fill="black"/>
<path d="M234 386.27H213.08L222.41 343.27C223.18 339.72 226.96 337.13 231.41 337.13H242.5L234 386.27Z" fill="white"/>
<path d="M234 386.27L213.11 386.4H212.95V386.24C214.26 380.13 220.55 350.82 221.71 345.39C221.911 343.984 222.311 342.613 222.9 341.32C225.11 337.32 230.01 336.61 234.15 336.89H242.5H242.75L242.7 337.12L238.36 361.74L234 386.27ZM234 386.27L238.14 361.62L242.33 337.08L242.53 337.32H234.18C230.18 337.08 225.51 337.72 223.35 341.54C222.78 342.788 222.393 344.112 222.2 345.47L220.41 353.63L213.24 386.28L213.11 386.12L234 386.25V386.27Z" fill="#263238"/>
<path d="M234 386.26C234 386.26 232 396.26 223.56 396.26C215.12 396.26 213.12 386.26 213.12 386.26H234Z" fill="#EBEBEB"/>
<path d="M338.45 386.27H359.34L357.21 337.12H338.45V386.27Z" fill="white"/>
<path d="M338.45 386.27L359.34 386.14L359.21 386.27L357 337.13L357.25 337.37L338.49 337.32L338.69 337.12L338.62 361.64L338.49 386.27H338.45ZM338.45 386.27L338.32 361.75L338.25 337.12V336.92H338.46H357.22H357.45V337.16C357.45 337.34 359.45 386.29 359.45 386.45H359.31L338.42 386.32L338.45 386.27Z" fill="#263238"/>
<path d="M359.34 386.26C359.34 386.26 357.34 396.26 348.9 396.26C340.46 396.26 338.44 386.26 338.44 386.26H359.34Z" fill="#EBEBEB"/>
<path d="M359.34 386.27H380.23L375.97 337.12H357.21L359.34 386.27Z" fill="#0F9BF2"/>
<path d="M380.23 386.26C380.23 386.26 378.23 396.26 369.79 396.26C361.35 396.26 359.34 386.26 359.34 386.26H380.23Z" fill="#0F9BF2"/>
<path opacity="0.1" d="M380.23 386.26C380.23 386.26 378.23 396.26 369.79 396.26C361.35 396.26 359.34 386.26 359.34 386.26H380.23Z" fill="black"/>
<path d="M380.24 386.27H401.13L394.73 337.12H375.97L380.24 386.27Z" fill="white"/>
<path d="M380.24 386.27L401.13 386.14C400.84 387.04 394.59 336.95 394.49 337.14L394.73 337.36L376 337.32L376.2 337.1C377.25 349.35 379.28 374.01 380.27 386.27H380.24ZM380.24 386.27L378 361.76L375.79 337.14V336.92H376H394.76H395C395.07 337.28 401.27 386.07 401.33 386.45H401.18L380.29 386.32L380.24 386.27Z" fill="#263238"/>
<path d="M401.13 386.26C401.13 386.26 399.13 396.26 390.69 396.26C382.25 396.26 380.24 386.26 380.24 386.26H401.13Z" fill="#EBEBEB"/>
<path d="M401.13 386.27H422.02L413.49 337.12H394.74L401.13 386.27Z" fill="#0F9BF2"/>
<path d="M422 386.26C422 386.26 420 396.26 411.54 396.26C403.08 396.26 401.1 386.26 401.1 386.26H422Z" fill="#0F9BF2"/>
<path opacity="0.1" d="M422 386.26C422 386.26 420 396.26 411.54 396.26C403.08 396.26 401.1 386.26 401.1 386.26H422Z" fill="black"/>
<path d="M422 386.27H442.89L433.56 343.27C432.79 339.72 429.01 337.13 424.56 337.13H413.5L422 386.27Z" fill="white"/>
<path d="M422 386.27L442.89 386.14L442.76 386.3L435.59 353.65L433.8 345.49C433.607 344.132 433.22 342.808 432.65 341.56C430.49 337.74 425.84 337.1 421.82 337.34H413.47L413.67 337.1C415.81 349.33 420 374 422 386.27ZM422 386.27L417.61 361.77L413.3 337.15L413.25 336.92H413.5H421.85C426.72 336.53 432.65 337.92 433.85 343.37C435.35 350.37 441.45 378.79 443.05 386.27V386.43H442.89L422 386.27Z" fill="#263238"/>
<path d="M442.91 386.26C442.91 386.26 440.91 396.26 432.47 396.26C424.03 396.26 422.03 386.26 422.03 386.26H442.91Z" fill="#EBEBEB"/>
<path d="M376.61 482.53H279.4V579.74H376.61V482.53Z" fill="#0F9BF2"/>
<path d="M359.94 529.06H296.06V520H359.94V529.06Z" fill="white"/>
<path d="M356.38 527.14L354.27 560.75H301.74L299.62 527.14H356.38Z" fill="white"/>
<path d="M334.79 523.51C334.79 524.853 334.392 526.166 333.646 527.282C332.9 528.399 331.839 529.269 330.598 529.783C329.358 530.297 327.992 530.432 326.675 530.17C325.358 529.908 324.148 529.261 323.199 528.311C322.249 527.362 321.602 526.152 321.34 524.835C321.079 523.518 321.213 522.152 321.727 520.912C322.241 519.671 323.111 518.61 324.228 517.864C325.344 517.118 326.657 516.72 328 516.72C329.8 516.723 331.526 517.439 332.798 518.712C334.071 519.984 334.787 521.71 334.79 523.51Z" fill="white"/>
<path d="M319.06 534.41V553.75C319.063 553.978 319.02 554.203 318.935 554.414C318.85 554.625 318.723 554.817 318.563 554.979C318.403 555.141 318.213 555.269 318.003 555.357C317.793 555.445 317.568 555.49 317.34 555.49H317.06C316.872 555.489 316.687 555.45 316.514 555.377C316.341 555.304 316.184 555.198 316.052 555.064C315.92 554.93 315.816 554.772 315.745 554.598C315.674 554.424 315.639 554.238 315.64 554.05V534.41C315.643 534.034 315.793 533.675 316.059 533.409C316.325 533.143 316.684 532.993 317.06 532.99H317.62C317.808 532.987 317.995 533.022 318.17 533.092C318.344 533.162 318.503 533.267 318.637 533.399C318.771 533.531 318.877 533.688 318.95 533.862C319.023 534.036 319.06 534.222 319.06 534.41Z" fill="#0F9BF2"/>
<path d="M329.7 534.41V553.75C329.703 553.978 329.66 554.203 329.575 554.414C329.49 554.625 329.363 554.817 329.203 554.979C329.043 555.141 328.853 555.269 328.643 555.357C328.433 555.445 328.208 555.49 327.98 555.49H327.7C327.512 555.489 327.327 555.45 327.154 555.377C326.981 555.304 326.824 555.198 326.692 555.064C326.56 554.93 326.456 554.772 326.385 554.598C326.314 554.424 326.279 554.238 326.28 554.05V534.41C326.285 534.036 326.437 533.679 326.702 533.415C326.968 533.152 327.326 533.003 327.7 533H328.26C328.447 532.997 328.633 533.032 328.807 533.101C328.981 533.171 329.14 533.274 329.274 533.405C329.407 533.536 329.514 533.693 329.587 533.865C329.66 534.037 329.699 534.223 329.7 534.41Z" fill="#0F9BF2"/>
<path d="M340.34 534.41V553.75C340.343 553.978 340.3 554.203 340.215 554.414C340.13 554.625 340.003 554.817 339.843 554.979C339.683 555.141 339.493 555.269 339.283 555.357C339.073 555.445 338.848 555.49 338.62 555.49H338.34C338.152 555.489 337.967 555.45 337.794 555.377C337.621 555.304 337.464 555.198 337.332 555.064C337.2 554.93 337.096 554.772 337.025 554.598C336.954 554.424 336.919 554.238 336.92 554.05V534.41C336.923 534.034 337.073 533.675 337.339 533.409C337.605 533.143 337.964 532.993 338.34 532.99H338.9C339.088 532.987 339.275 533.022 339.45 533.092C339.624 533.162 339.783 533.267 339.917 533.399C340.051 533.531 340.157 533.688 340.23 533.862C340.303 534.036 340.34 534.222 340.34 534.41Z" fill="#0F9BF2"/>
<path d="M346.63 522.96H343.63V505H312.37V522.96H309.37V502H346.63V522.96Z" fill="white"/>
<path d="M388.354 493.244C394.259 486.752 393.784 476.703 387.292 470.797C380.8 464.892 370.75 465.368 364.845 471.86C358.94 478.352 359.416 488.402 365.908 494.307C372.4 500.212 382.449 499.736 388.354 493.244Z" fill="#455A64"/>
<path d="M379.9 480.88C380.421 481.389 380.835 481.997 381.117 482.669C381.398 483.34 381.542 484.062 381.54 484.79C381.543 485.892 381.219 486.97 380.608 487.888C379.998 488.805 379.128 489.521 378.11 489.943C377.092 490.365 375.971 490.475 374.891 490.259C373.81 490.043 372.818 489.511 372.04 488.73C371.906 488.616 371.797 488.476 371.72 488.319C371.643 488.161 371.6 487.989 371.592 487.813C371.585 487.638 371.614 487.463 371.678 487.3C371.742 487.136 371.839 486.987 371.963 486.863C372.087 486.739 372.236 486.642 372.4 486.578C372.563 486.514 372.738 486.485 372.914 486.492C373.089 486.5 373.261 486.543 373.419 486.62C373.576 486.697 373.716 486.806 373.83 486.94C374.11 487.22 374.442 487.442 374.807 487.593C375.173 487.744 375.565 487.821 375.96 487.82C376.359 487.824 376.754 487.748 377.124 487.597C377.493 487.445 377.828 487.222 378.11 486.94C378.396 486.66 378.623 486.325 378.777 485.956C378.932 485.587 379.011 485.19 379.01 484.79C379.012 484.394 378.933 484.002 378.778 483.638C378.623 483.273 378.396 482.944 378.11 482.67C377.832 482.387 377.501 482.161 377.135 482.007C376.77 481.852 376.377 481.772 375.98 481.77C375.806 481.779 375.632 481.748 375.473 481.679C375.313 481.609 375.172 481.504 375.06 481.37C374.825 481.129 374.694 480.806 374.694 480.47C374.694 480.134 374.825 479.811 375.06 479.57L377.34 477.25H373.71C373.394 477.222 373.1 477.076 372.886 476.842C372.671 476.608 372.553 476.302 372.553 475.985C372.553 475.668 372.671 475.362 372.886 475.128C373.1 474.894 373.394 474.748 373.71 474.72H380.32C380.486 474.717 380.652 474.748 380.806 474.809C380.961 474.871 381.101 474.962 381.22 475.078C381.339 475.195 381.434 475.333 381.499 475.486C381.565 475.639 381.599 475.804 381.6 475.97C381.594 476.18 381.54 476.385 381.44 476.57C381.381 476.686 381.307 476.793 381.22 476.89L378.39 479.8C378.958 480.061 379.47 480.427 379.9 480.88Z" fill="white"/>
<path d="M447.8 424.79C455.68 430.46 480.87 453.27 482.46 457.07C484.37 461.59 474.6 477.66 470.56 477.31C460.12 476.4 441.84 443.52 435.98 428.47C433.11 421.11 434.62 415.3 447.8 424.79Z" fill="#D3766A"/>
<path d="M469.15 422.76C471.41 420.28 489.3 433.6 488.94 438.52C487.63 456.62 482.08 471.99 478.78 475.17C477.728 476.136 476.463 476.839 475.087 477.223C473.712 477.607 472.265 477.66 470.865 477.379C469.465 477.097 468.151 476.488 467.031 475.602C465.911 474.716 465.016 473.578 464.42 472.28C460.46 464 460.39 432.35 469.15 422.76Z" fill="#D3766A"/>
<path d="M462.49 462.05C460.49 452.05 463.08 437.91 463.07 437.89C463.07 437.69 463.33 437.62 463.34 437.73C463.41 439.73 462.05 454.55 462.76 461.97C462.76 462 462.5 462.12 462.49 462.05Z" fill="#263238"/>
<path d="M492.75 425.27C492.45 430.52 487.64 441 485.5 443.09C483.36 445.18 465.27 437.58 464.5 434.62C463.73 431.66 466.1 414.08 469.68 410.1C473.26 406.12 493.06 419.83 492.75 425.27Z" fill="#D3766A"/>
<path d="M464.35 431.56C462.999 427.535 461.069 423.728 458.62 420.26C455.55 416.26 450.54 410.6 452.62 408.86C456.94 405.31 469.43 419.37 469.43 419.37C469.43 419.37 473.95 426.45 469.98 430.37C469.241 431.066 468.325 431.545 467.332 431.755C466.339 431.965 465.307 431.897 464.35 431.56Z" fill="#D3766A"/>
<path d="M469.75 420.95L474.43 418.06L466.07 404.51L460.15 408.17L469.75 420.95Z" fill="#0F9BF2"/>
<path d="M460.16 408.17L463.81 413.04L469.76 420.95L474.43 418.06L466.08 404.51L460.16 408.17Z" fill="#0F9BF2"/>
<path opacity="0.1" d="M460.16 408.17L463.81 413.04L469.26 409.68L466.08 404.51L460.16 408.17Z" fill="black"/>
<path d="M460.568 412.596L467.921 408.012L464.439 402.427L457.086 407.012L460.568 412.596Z" fill="#0F9BF2"/>
<path d="M451.19 405.91L457.27 402.95L451.68 393.9L446.31 398L451.19 405.91Z" fill="#0F9BF2"/>
<path d="M453.52 390.29L461.76 403.65L472.07 398.88L499.46 393.32L479.66 361.23L462.41 383.22L453.52 390.29Z" fill="#0F9BF2"/>
<path d="M484.9 380.15C490.39 389.06 497.17 394.85 500.03 393.08C502.89 391.31 500.76 382.67 495.26 373.76C489.76 364.85 483 359.07 480.13 360.83C477.26 362.59 479.41 371.25 484.9 380.15Z" fill="#0F9BF2"/>
<path opacity="0.2" d="M485.94 379.13C490.81 387.04 496.66 392.27 499.01 390.83C501.36 389.39 499.3 381.83 494.42 373.9C489.54 365.97 483.69 360.76 481.35 362.2C479.01 363.64 481.06 371.23 485.94 379.13Z" fill="black"/>
<path d="M486.63 378.71C487.28 379.76 487.94 380.76 488.63 381.71C489.335 381.799 490.05 381.688 490.694 381.387C491.337 381.087 491.883 380.61 492.267 380.013C492.651 379.415 492.857 378.721 492.863 378.011C492.869 377.301 492.674 376.604 492.3 376L491.37 374.49C490.999 373.887 490.465 373.401 489.83 373.089C489.195 372.776 488.484 372.649 487.78 372.722C487.076 372.795 486.407 373.065 485.849 373.502C485.292 373.939 484.869 374.524 484.63 375.19C485.23 376.34 485.9 377.52 486.63 378.71Z" fill="#0F9BF2"/>
<path d="M457.04 407.59L468.79 401.87L457.99 384.36L447.6 392.29L457.04 407.59Z" fill="#0F9BF2"/>
<path opacity="0.2" d="M457.04 407.59L468.79 401.87L457.99 384.36L447.6 392.29L457.04 407.59Z" fill="black"/>
<path opacity="0.2" d="M479.52 364.36C479.352 365.774 479.44 367.207 479.78 368.59C480.094 369.977 480.515 371.338 481.04 372.66C481.29 373.33 481.59 373.97 481.87 374.66C482.15 375.35 482.49 375.94 482.82 376.57C483.15 377.2 483.48 377.83 483.82 378.44C484.16 379.05 484.53 379.67 484.9 380.27C486.39 382.694 488.093 384.98 489.99 387.1C490.948 388.152 491.999 389.116 493.13 389.98C494.244 390.873 495.536 391.518 496.92 391.87C495.574 391.457 494.326 390.777 493.25 389.87C492.168 388.977 491.165 387.993 490.25 386.93C488.392 384.8 486.719 382.515 485.25 380.1C483.735 377.715 482.417 375.21 481.31 372.61C480.754 371.315 480.303 369.977 479.96 368.61C479.562 367.231 479.413 365.792 479.52 364.36Z" fill="black"/>
<path d="M490.91 356.36C490.42 357.21 489.97 358.08 489.53 358.96C489.09 359.84 488.67 360.72 488.26 361.61C487.85 362.5 487.45 363.4 487.08 364.3L486.52 365.67C486.35 366.13 486.16 366.58 486 367.05C486.25 366.62 486.48 366.19 486.72 365.76L487.39 364.45C487.83 363.57 488.25 362.69 488.66 361.8C489.07 360.91 489.47 360.01 489.84 359.1C490.21 358.19 490.59 357.29 490.91 356.36Z" fill="#263238"/>
<path d="M496.43 385C497.53 384.87 498.62 384.68 499.71 384.49C500.8 384.3 501.88 384.08 502.96 383.86C504.04 383.64 505.13 383.4 506.2 383.13L507.81 382.73C508.34 382.58 508.88 382.45 509.41 382.28L507.76 382.52L506.13 382.8C505.04 382.98 503.96 383.2 502.87 383.43C501.78 383.66 500.71 383.89 499.64 384.16C498.57 384.43 497.49 384.73 496.43 385Z" fill="#263238"/>
<path d="M513.93 373.94C512.37 374.42 510.83 374.94 509.3 375.48C507.77 376.02 506.24 376.57 504.71 377.13C503.18 377.69 501.71 378.27 500.16 378.88L497.9 379.79C497.15 380.1 496.39 380.41 495.65 380.74C496.43 380.5 497.2 380.24 497.97 379.99L500.28 379.2C501.82 378.67 503.34 378.11 504.87 377.55C506.4 376.99 507.87 376.4 509.42 375.8C510.97 375.2 512.44 374.59 513.93 373.94Z" fill="#263238"/>
<path d="M499.47 353.31C498.47 354.65 497.59 356.02 496.67 357.39C495.75 358.76 494.86 360.15 493.98 361.54C493.1 362.93 492.22 364.32 491.37 365.74L490.09 367.86C489.68 368.57 489.26 369.28 488.86 370C489.34 369.33 489.8 368.65 490.28 368L491.66 366C492.57 364.63 493.46 363.24 494.35 361.85C495.24 360.46 496.11 359.07 496.96 357.65C497.81 356.23 498.66 354.75 499.47 353.31Z" fill="#263238"/>
<path d="M492.73 375.15C494.39 374.22 496.02 373.24 497.65 372.25C499.28 371.26 500.88 370.25 502.5 369.25C504.12 368.25 505.71 367.25 507.3 366.15L509.69 364.58C510.47 364.04 511.26 363.51 512.04 362.96C511.21 363.43 510.39 363.96 509.57 364.39L507.12 365.87C505.49 366.87 503.89 367.87 502.27 368.87C500.65 369.87 499.06 370.87 497.47 371.96C495.88 373.05 494.29 374.06 492.73 375.15Z" fill="#263238"/>
<path d="M465.37 417.33C466.67 419.8 468.83 416.85 468.83 416.85C468.83 416.85 466.74 421.85 469.07 423.85C471.4 425.85 473.79 422.14 473.97 421.85C473.86 422.11 472.07 426.74 474.61 428.53C477.15 430.32 479.12 426.3 479.24 426.03C479.24 426.32 478.97 430.03 481.24 430.97C485.09 432.54 485.98 423.02 488.67 420.97C488.67 420.97 492.67 425.12 492.78 425.22C492.89 425.32 493.78 416.22 490.86 412.71C490.44 412.199 489.858 411.847 489.21 411.713C488.563 411.578 487.889 411.669 487.3 411.97C487.3 411.97 487.95 409.1 485.99 407.62C484.99 406.87 482.89 407.81 482.89 407.81C483.003 407.151 482.933 406.474 482.686 405.853C482.439 405.232 482.025 404.691 481.49 404.29C480.04 403.29 478.16 404.42 478.16 404.42C478.16 404.42 477.54 401.99 475.73 401.49C472.07 400.52 462.59 412.06 465.37 417.33Z" fill="#D3766A"/>
<path d="M477.81 404.6C477.81 404.6 477.81 404.51 477.76 404.54C473.541 407.676 470.378 412.022 468.69 417C468.64 417.16 468.88 417.31 468.97 417.14C471.291 412.552 474.269 408.328 477.81 404.6Z" fill="#263238"/>
<path d="M482.88 407.79C482.88 407.79 482.88 407.68 482.8 407.72C478.2 411.231 475.008 416.271 473.8 421.93C473.8 422.13 473.93 422.34 473.99 422.12C475 418.31 479.51 411.24 482.88 407.79Z" fill="#263238"/>
<path d="M479.3 426.51C480.55 420.98 483.44 416.41 487.09 412.14C487.09 412.14 487.09 412.03 487 412.06C484.65 413.66 482.61 416.63 481.21 419.06C479.876 421.301 479.152 423.852 479.11 426.46C479.11 426.57 479.27 426.62 479.3 426.51Z" fill="#263238"/>
<path d="M468.74 416.88C468.68 417.07 469.02 416.95 468.97 417.14C468.75 417.96 467.82 422.96 469.43 423.8C470.72 424.48 472.52 423.21 473.02 422.45L474.28 420.55L473.76 422.78C473.52 423.761 473.443 424.774 473.53 425.78C473.546 426.25 473.66 426.712 473.864 427.136C474.069 427.56 474.361 427.936 474.72 428.24C475.062 428.513 475.487 428.662 475.925 428.662C476.363 428.662 476.788 428.513 477.13 428.24C477.88 427.611 478.458 426.803 478.81 425.89L479.88 423.41L479.69 426.09C479.635 426.839 479.675 427.591 479.81 428.33C479.915 429.034 480.225 429.691 480.7 430.22C480.924 430.448 481.208 430.61 481.519 430.686C481.83 430.761 482.156 430.749 482.46 430.65C483.108 430.33 483.65 429.83 484.02 429.21C484.848 427.882 485.571 426.491 486.18 425.05C486.52 424.33 486.85 423.61 487.18 422.91C487.511 422.179 487.995 421.527 488.6 421C488.066 421.58 487.651 422.26 487.38 423C487.07 423.73 486.79 424.47 486.51 425.21C485.984 426.724 485.315 428.184 484.51 429.57C484.095 430.335 483.461 430.958 482.69 431.36C482.248 431.535 481.765 431.577 481.299 431.481C480.834 431.385 480.407 431.155 480.07 430.82C479.462 430.179 479.058 429.371 478.91 428.5C478.743 427.685 478.686 426.851 478.74 426.02L479.61 426.21C479.204 427.305 478.514 428.271 477.61 429.01C477.106 429.406 476.481 429.618 475.84 429.61C475.21 429.572 474.604 429.35 474.1 428.97C473.644 428.587 473.273 428.112 473.013 427.576C472.753 427.04 472.608 426.455 472.59 425.86C472.509 424.744 472.61 423.623 472.89 422.54L473.63 422.87C472.96 423.81 471.1 425.44 468.97 424.65C466.43 423.22 468.32 417.84 468.74 416.88Z" fill="#263238"/>
<path d="M468.83 416.85C468.409 417.252 467.931 417.589 467.41 417.85C467.202 417.949 466.973 417.992 466.743 417.976C466.514 417.961 466.292 417.886 466.1 417.76C465.726 417.416 465.459 416.972 465.33 416.48C465.16 415.94 465.01 415.37 464.88 414.78C464.7 415.372 464.649 415.996 464.73 416.61C464.786 417.3 465.113 417.94 465.64 418.39C465.94 418.601 466.298 418.715 466.665 418.715C467.032 418.715 467.39 418.601 467.69 418.39C468.228 418.015 468.629 417.474 468.83 416.85Z" fill="#263238"/>
<path d="M423.29 710.44C421.29 709.21 381.03 660.44 380.68 657.57C380.63 657.18 386.76 651.66 394.54 644.73C394.94 644.37 424.08 616.17 424.08 616.17L449.08 646.36L421.74 674.26C421.74 674.26 428.8 699.83 428.86 702.99C428.92 706.15 425.27 711.68 423.29 710.44Z" fill="#D3766A"/>
<path d="M424.65 684.37C424.58 684.21 424.56 684.12 424.59 684.08C424.616 684.175 424.636 684.272 424.65 684.37Z" fill="#0F9BF2"/>
<path d="M428.87 703C428.92 706.14 425.26 711.69 423.29 710.45C421.32 709.21 381.03 660.45 380.68 657.58C380.62 657.19 386.75 651.67 394.54 644.74L400.8 638.74L426.57 669.39L421.75 674.31C421.75 674.31 428.81 699.83 428.87 703Z" fill="#EBEBEB"/>
<path d="M424.85 709.93C422.85 708.68 382.26 659.26 381.91 656.39C381.76 655.31 388.62 648.97 397.12 641.56L397.39 641.33L423.93 672.93L423.38 673.36C423.38 673.36 430.45 699.23 430.51 702.42C430.57 705.61 426.84 711.19 424.85 709.93Z" fill="#0F9BF2"/>
<path d="M426.3 707.8C419.67 699.3 392.09 665.64 384.89 657.74C384.83 657.68 384.78 657.74 384.84 657.79C391.23 666.36 419.07 699.79 426.17 707.91C426.32 708.08 426.44 708 426.3 707.8Z" fill="white"/>
<path d="M425.49 676.12C423.41 672.33 419.61 668.74 415.22 668.12C415.05 668.12 415.02 668.34 415.14 668.42C418.721 670.727 422.047 673.409 425.06 676.42C425.105 676.46 425.163 676.483 425.223 676.487C425.283 676.49 425.343 676.473 425.393 676.438C425.442 676.404 425.479 676.354 425.496 676.296C425.514 676.238 425.512 676.176 425.49 676.12Z" fill="white"/>
<path d="M426 679.65C423.92 675.87 420.13 672.28 415.73 671.65C415.56 671.65 415.53 671.87 415.65 671.95C419.237 674.254 422.566 676.936 425.58 679.95C425.626 679.985 425.682 680.004 425.74 680.005C425.797 680.006 425.854 679.989 425.901 679.955C425.948 679.922 425.983 679.874 426.001 679.819C426.019 679.764 426.018 679.705 426 679.65Z" fill="white"/>
<path d="M426.52 683.19C424.44 679.41 420.64 675.81 416.25 675.19C416.08 675.19 416.05 675.41 416.17 675.48C419.754 677.787 423.083 680.469 426.1 683.48C426.145 683.513 426.2 683.532 426.256 683.532C426.312 683.533 426.367 683.517 426.413 683.485C426.46 683.453 426.495 683.407 426.514 683.354C426.533 683.302 426.535 683.244 426.52 683.19Z" fill="white"/>
<path d="M427.24 709.23C427.62 710.4 424.49 712.65 423.73 712.23C422.97 711.81 379 657.67 378.41 656.58C377.82 655.49 381.41 653.14 382.47 654.06C383.53 654.98 427.24 709.23 427.24 709.23Z" fill="#263238"/>
<path d="M398.56 654C397.41 649 389.56 650.73 390.7 655.79C391.84 660.85 399.71 659.1 398.56 654Z" fill="white"/>
<path d="M444.11 585.7C441.87 596.7 401.4 634.75 401.4 634.75L433.29 671.57C433.29 671.57 492.98 612.71 489.59 588.35C486.64 567.15 454.91 481.93 454.91 481.93H418.3C418.3 481.93 446.3 574.86 444.11 585.7Z" fill="#37474F"/>
<path d="M444.11 585.7C441.87 596.7 401.4 634.75 401.4 634.75L433.29 671.57C433.29 671.57 492.98 612.71 489.59 588.35C486.64 567.15 454.91 481.93 454.91 481.93H418.3C418.3 481.93 446.3 574.86 444.11 585.7Z" fill="#37474F"/>
<path d="M436.92 662.81C432.68 657.54 433.97 658.99 429.68 653.76C427.57 651.2 413.74 634.41 411.36 632.36C411.31 632.36 411.22 632.36 411.25 632.45C412.85 635.15 426.97 651.71 429.13 654.23C433.52 659.37 432.32 657.85 436.77 662.94C436.85 663 437 662.91 436.92 662.81Z" fill="#263238"/>
<path d="M448.65 580.33C448.13 577.58 447.53 574.83 446.95 572.09C445.757 566.49 444.497 560.907 443.17 555.34C440.543 544.3 437.677 533.32 434.57 522.4C431.45 511.45 428.15 500.51 424.35 489.77C423.89 488.44 423.35 487.12 422.92 485.77C422.92 485.67 422.72 485.71 422.76 485.77C426.05 496.53 429.44 507.26 432.52 518.08C435.6 528.9 438.44 539.69 441.12 550.57C442.46 556.04 443.71 561.57 444.94 567.01C445.54 569.71 446.127 572.413 446.7 575.12C447.414 577.862 447.925 580.653 448.23 583.47C448.324 586.141 447.572 588.773 446.08 590.99C444.71 593.24 443.08 595.35 441.54 597.47C438.41 601.71 413.89 628.92 412.93 629.83C412.85 629.9 412.93 630 413.04 629.94C417.04 626.35 437.04 604.94 440.26 600.73C441.85 598.64 443.39 596.51 444.91 594.37C446.432 592.424 447.658 590.264 448.55 587.96C449.234 585.467 449.268 582.84 448.65 580.33Z" fill="#263238"/>
<path d="M448.58 481.92L441.93 569.14C435.59 539.29 418.31 481.92 418.31 481.92H448.58Z" fill="#263238"/>
<path d="M510 721.9C507.8 722.65 444.51 722.82 442.1 721.29C441.76 721.09 441.39 712.85 440.97 702.43C440.97 701.9 433.21 659.22 433.21 659.22L472.42 659.03L481.06 700.13C481.06 700.13 505.31 710.9 507.79 712.85C510.27 714.8 512.18 721.16 510 721.9Z" fill="#D3766A"/>
<path d="M510 721.9C507.79 722.65 444.51 722.82 442.1 721.29C441.76 721.09 441.38 712.85 440.96 702.43C440.96 702.28 440.37 698.96 439.52 694.22H479.81L481.05 700.13C481.05 700.13 505.3 710.9 507.78 712.85C510.26 714.8 512.18 721.16 510 721.9Z" fill="#EBEBEB"/>
<path d="M490.68 704.3C490.52 704.3 490.43 704.21 490.42 704.16L490.68 704.3Z" fill="#0F9BF2"/>
<path d="M510.29 721.62C508.05 722.36 444.09 722.07 441.67 720.51C440.73 719.93 440.23 710.61 439.95 699.33V699L481.21 698.72V699.42C481.21 699.42 505.64 710.49 508.13 712.48C510.62 714.47 512.52 720.88 510.29 721.62Z" fill="#0F9BF2"/>
<path d="M509.57 719.13C498.79 718.82 455.28 718.57 444.57 719.08C444.48 719.08 444.48 719.14 444.57 719.15C455.24 719.69 498.75 719.59 509.57 719.31C509.8 719.3 509.8 719.14 509.57 719.13Z" fill="white"/>
<path d="M484.66 699.54C480.42 698.73 475.23 699.36 471.97 702.37C471.85 702.48 471.97 702.66 472.15 702.62C476.21 701.329 480.398 700.477 484.64 700.08C484.712 700.083 484.781 700.057 484.834 700.008C484.886 699.959 484.917 699.892 484.92 699.82C484.923 699.748 484.897 699.679 484.848 699.626C484.799 699.574 484.732 699.543 484.66 699.54Z" fill="white"/>
<path d="M487.71 701.4C483.47 700.59 478.28 701.22 475.03 704.23C474.9 704.34 475.03 704.52 475.2 704.48C479.261 703.191 483.448 702.339 487.69 701.94C487.725 701.941 487.761 701.936 487.794 701.923C487.827 701.911 487.858 701.892 487.884 701.868C487.91 701.844 487.931 701.815 487.946 701.783C487.96 701.75 487.969 701.715 487.97 701.68C487.971 701.645 487.966 701.609 487.953 701.576C487.941 701.543 487.922 701.512 487.898 701.486C487.874 701.46 487.845 701.439 487.813 701.424C487.78 701.41 487.745 701.401 487.71 701.4Z" fill="white"/>
<path d="M490.77 703.26C486.53 702.45 481.33 703.08 478.08 706.09C477.95 706.2 478.08 706.38 478.26 706.34C482.32 705.049 486.508 704.197 490.75 703.8C490.822 703.803 490.891 703.777 490.944 703.728C490.996 703.679 491.027 703.612 491.03 703.54C491.033 703.468 491.007 703.399 490.958 703.346C490.909 703.294 490.842 703.263 490.77 703.26Z" fill="white"/>
<path d="M511.27 719.33C512.42 719.77 512.15 723.62 511.32 723.92C510.49 724.22 440.76 723.6 439.58 723.33C438.4 723.06 438.85 718.81 440.23 718.59C441.61 718.37 511.27 719.33 511.27 719.33Z" fill="#263238"/>
<path d="M450.47 706.19C445.85 703.85 442.2 711.03 446.84 713.38C451.48 715.73 455.11 708.53 450.47 706.19Z" fill="white"/>
<path d="M451.38 481.93C449.954 487.946 448.902 494.044 448.23 500.19C447.47 507.85 446.51 514.63 445.49 515.47C444.47 516.31 438.55 520.14 436.6 521.33C436.6 521.33 454.6 576.01 459.29 594.23C466.04 620.65 482.17 690.74 482.17 690.74H438C438 690.74 426.07 624.46 420.35 599.31C415.42 577.73 396.62 513 396.62 513C389.78 496.18 401.31 481.89 401.31 481.89C401.31 481.89 451.38 481.9 451.38 481.93Z" fill="#37474F"/>
<path d="M478.06 682.38C471.53 682.38 473.41 682.26 466.88 682.3C463.69 682.3 442.71 682.45 439.73 683.01C439.67 683.01 439.67 683.14 439.73 683.15C442.73 683.61 463.73 683.15 466.88 683.02C473.41 682.85 471.53 682.82 478.05 682.58C478.076 682.581 478.102 682.572 478.122 682.554C478.142 682.536 478.154 682.512 478.155 682.485C478.156 682.458 478.147 682.433 478.129 682.413C478.111 682.393 478.087 682.381 478.06 682.38Z" fill="#263238"/>
<path d="M448.54 513.31C444.357 515.629 440.382 518.306 436.66 521.31C436.644 521.321 436.631 521.334 436.62 521.35C436.61 521.366 436.602 521.383 436.599 521.402C436.595 521.42 436.595 521.439 436.599 521.458C436.602 521.477 436.609 521.494 436.62 521.51C436.63 521.526 436.644 521.539 436.66 521.55C436.675 521.56 436.693 521.568 436.712 521.571C436.73 521.575 436.749 521.575 436.768 521.571C436.787 521.568 436.804 521.56 436.82 521.55C440.82 519.03 444.97 516.55 448.82 513.83C448.889 513.793 448.94 513.73 448.963 513.655C448.985 513.58 448.977 513.499 448.94 513.43C448.903 513.361 448.84 513.31 448.765 513.287C448.69 513.265 448.609 513.273 448.54 513.31Z" fill="#263238"/>
<path d="M445.25 483.57C445.25 483.42 444.95 483.43 444.98 483.57C445.727 488.382 446.231 493.228 446.49 498.09C446.64 500.35 446.76 512.9 442.76 512.61C442.1 512.61 441.67 511.97 441.42 511.02C441.233 509.745 441.206 508.452 441.34 507.17C441.34 504.53 441.34 501.9 441.13 499.27C440.829 494.366 440.021 489.507 438.72 484.77C438.708 484.742 438.688 484.719 438.661 484.705C438.635 484.691 438.604 484.687 438.574 484.693C438.545 484.698 438.519 484.714 438.499 484.738C438.48 484.761 438.47 484.79 438.47 484.82C439.631 491.507 440.279 498.274 440.41 505.06C440.41 508.32 439.57 513.38 442.98 513.36C446.39 513.34 447.41 504.93 447.49 502.66C447.574 496.226 446.821 489.809 445.25 483.57Z" fill="#263238"/>
<path d="M442.92 512.94C442.704 513.822 442.547 514.717 442.45 515.62C442.321 516.331 442.321 517.059 442.45 517.77C442.461 517.798 442.48 517.823 442.505 517.84C442.53 517.857 442.56 517.866 442.59 517.866C442.62 517.866 442.65 517.857 442.675 517.84C442.7 517.823 442.719 517.798 442.73 517.77C443.03 517.08 443.226 516.348 443.31 515.6C443.48 514.77 443.67 513.94 443.81 513.1C443.831 512.982 443.805 512.86 443.736 512.762C443.668 512.663 443.563 512.596 443.445 512.575C443.327 512.554 443.205 512.58 443.107 512.649C443.008 512.717 442.941 512.822 442.92 512.94Z" fill="#263238"/>
<path d="M434.14 667.82C434.02 666.82 433.89 665.82 433.75 664.82C433.48 662.91 433.16 661.01 432.86 659.1C432.27 655.27 431.62 651.46 430.94 647.65C429.59 640.04 428.03 632.46 426.38 624.92C425.45 620.65 424.38 616.44 423.23 612.22C423.15 611.93 422.74 612.07 422.79 612.36C423.48 616.21 424.15 620.07 424.94 623.91C425.73 627.75 426.51 631.57 427.27 635.4C428.77 642.97 430.17 650.57 431.67 658.15C432.1 660.29 432.48 662.43 432.9 664.57C433.11 665.64 433.32 666.7 433.55 667.77C433.78 668.84 434.11 669.87 434.29 670.94C434.29 671.04 434.45 670.99 434.44 670.94C434.27 669.89 434.25 668.85 434.14 667.82Z" fill="#263238"/>
<path d="M463.83 610.61C462.39 603.46 460.46 596.41 458.52 589.39C454.6 575.26 450 561.34 445.4 547.39L441.4 535.39C440.73 533.39 437.49 522.58 437.09 521.55C437.04 521.45 436.89 521.49 436.92 521.55C437.85 525.23 439.12 530.6 440.2 534.25C441.28 537.9 442.42 541.43 443.54 545.02C445.74 552.07 447.98 559.11 450.11 566.18C454.33 580.18 458.53 594.11 461.95 608.31C462.95 612.31 463.87 616.25 464.74 620.25C465.61 624.25 466.37 628.25 467.2 632.25C467.2 632.277 467.211 632.302 467.229 632.321C467.248 632.339 467.273 632.35 467.3 632.35C467.327 632.35 467.352 632.339 467.371 632.321C467.389 632.302 467.4 632.277 467.4 632.25C466.71 625 465.26 617.77 463.83 610.61Z" fill="#263238"/>
<path d="M437.06 648C434.69 634.37 431.85 620.82 428.7 607.34C425.55 593.86 422.02 580.34 418.14 567C414.26 553.66 410 540.4 405.35 527.29C403.17 521.08 400.5 514.93 399.51 508.41C398.125 500.039 399.531 491.444 403.51 483.95C403.516 483.939 403.52 483.928 403.521 483.916C403.523 483.904 403.522 483.892 403.518 483.88C403.515 483.869 403.51 483.858 403.502 483.848C403.495 483.839 403.486 483.831 403.475 483.825C403.465 483.819 403.453 483.815 403.441 483.814C403.429 483.812 403.417 483.813 403.405 483.817C403.394 483.82 403.383 483.825 403.373 483.833C403.364 483.84 403.356 483.849 403.35 483.86C399.46 489.67 395.13 501.71 402.35 521.02C404.75 527.46 406.82 534.02 408.95 540.53C411.137 547.243 413.233 553.973 415.24 560.72C419.24 574.11 422.9 587.59 426.24 601.16C429.58 614.73 432.49 628.39 435.08 642.11C437.67 655.83 438.71 660.53 440.92 674.36C441.21 676.16 441.44 677.97 441.68 679.78C441.68 679.88 441.85 679.88 441.84 679.78C440.07 666.07 439.42 661.59 437.06 648Z" fill="#263238"/>
<path d="M456.63 483.23L453.78 464.33C453.78 464.33 459.39 457.76 455.83 449.97C454 446 442.67 424.6 436 419.7C429.73 415.1 421.86 419.44 418.91 423.39C410.42 434.76 404.25 445.67 399.34 482.92L456.63 483.23Z" fill="#0F9BF2"/>
<path d="M444.11 461.32C441.228 461.581 438.37 462.059 435.56 462.75C434.17 463.11 432.8 463.54 431.44 463.99C430.76 464.22 430.07 464.42 429.39 464.62C428.673 464.849 427.931 464.99 427.18 465.04C427.12 465.04 427.12 465.14 427.18 465.15C427.887 465.178 428.595 465.162 429.3 465.1C429.975 465.014 430.643 464.884 431.3 464.71C432.72 464.36 434.11 463.94 435.53 463.57C438.37 462.83 441.22 462.09 444.11 461.57C444.28 461.53 444.24 461.3 444.11 461.32Z" fill="#263238"/>
<path d="M451.24 463.85C448.865 463.604 446.478 463.497 444.09 463.53C442.9 463.53 441.71 463.63 440.52 463.75C439.96 463.81 439.39 463.87 438.82 463.95C438.25 464.03 437.59 464.19 436.97 464.27C436.957 464.27 436.944 464.275 436.935 464.285C436.925 464.294 436.92 464.307 436.92 464.32C436.92 464.333 436.925 464.346 436.935 464.355C436.944 464.365 436.957 464.37 436.97 464.37C437.56 464.32 438.16 464.37 438.75 464.37H440.53L444.1 464.27C446.48 464.18 448.86 464.12 451.24 464.11C451.257 464.11 451.274 464.107 451.29 464.1C451.306 464.094 451.32 464.084 451.332 464.072C451.344 464.06 451.354 464.046 451.36 464.03C451.367 464.014 451.37 463.997 451.37 463.98C451.37 463.963 451.367 463.946 451.36 463.93C451.354 463.914 451.344 463.9 451.332 463.888C451.32 463.876 451.306 463.866 451.29 463.86C451.274 463.853 451.257 463.85 451.24 463.85Z" fill="#263238"/>
<path d="M418.52 423C400.63 439.87 384.06 467.73 385.24 482.36C386.41 496.81 391.31 494.95 392.73 494.73C401.4 493.37 418.3 451.34 423.07 434.4C427.84 417.46 422.94 418.83 418.52 423Z" fill="#D3766A"/>
<path d="M423.65 406.62C420.54 406.53 413.28 410.1 411.47 414.56C409.66 419.02 411.09 425.41 412.53 425.79C413.97 426.17 419.53 424.61 423.04 421.73C426.55 418.85 425.18 406.67 423.65 406.62Z" fill="#263238"/>
<path d="M423.66 406.64C423.75 406.64 423.73 406.43 423.66 406.45C421.04 406.87 418.41 408.28 416.06 409.45C414.095 410.309 412.33 411.57 410.88 413.15C410.22 413.941 409.739 414.865 409.472 415.86C409.204 416.854 409.156 417.895 409.33 418.91C409.636 421.391 410.573 423.753 412.05 425.77C412.1 425.82 412.21 425.77 412.17 425.71C410.17 421.59 408.09 416.48 411.85 412.71C415 409.52 419.63 408.34 423.66 406.64Z" fill="#263238"/>
<path d="M412.75 424.58C410.21 425.41 404.37 431.65 404.18 436.82C403.99 441.99 409.38 448.55 410.76 448.82C412.14 449.09 417 443.27 418.21 439.42C419.03 436.86 417.52 434.33 416.44 431.73C414.85 427.92 413.14 424.45 412.75 424.58Z" fill="#263238"/>
<path d="M419.66 438.53C419.48 433.33 415.66 428.87 413.09 424.64H413.01C414.79 428.83 418.16 432.27 419.1 436.83C419.435 438.155 419.445 439.542 419.13 440.872C418.815 442.201 418.184 443.436 417.29 444.47C415.63 446.28 413.29 447.4 411.22 448.62C411.08 448.7 411.22 448.9 411.36 448.82C415.56 446.55 419.84 443.89 419.66 438.53Z" fill="#263238"/>
<path d="M412.27 425.15C412.39 425.06 412.27 424.87 412.15 424.96C408.77 427.41 404.8 430.82 403.52 434.96C402.14 439.43 405.1 443.28 407.71 446.58C407.71 446.58 407.81 446.58 407.78 446.58C405.19 443.21 402.32 438.96 404.01 434.58C405.47 430.69 409.1 427.53 412.27 425.15Z" fill="#263238"/>
<path d="M411.58 447.68C409.13 451.25 406.3 456.36 408.29 459.8C410.28 463.24 416.42 467.27 416.83 467.13C417.24 466.99 422.49 460.72 422.38 455.87C422.27 451.02 411.9 447.21 411.58 447.68Z" fill="#263238"/>
<path d="M417.24 467.32C413.66 465.86 409.32 463.67 407.84 459.81C406.36 455.95 409.19 451.25 411.22 448.26H411.17C408.83 451.15 406.17 455.91 407.46 459.74C408.75 463.57 413.46 466.57 417.2 467.51C417.28 467.48 417.31 467.35 417.24 467.32Z" fill="#263238"/>
<path d="M416.66 466.78C415.976 468.171 415.585 469.687 415.511 471.235C415.437 472.783 415.682 474.33 416.23 475.78C418.47 481.53 415.88 481.67 411 486.45C406.86 490.45 409 496.51 413.2 497.65C413.2 497.65 409.73 495.2 412.02 491.65C414.75 487.39 426.07 486.2 427.24 478.07C428.77 467.52 416.66 466.78 416.66 466.78Z" fill="#263238"/>
<path d="M416 470.42C416 470.31 415.83 470.27 415.81 470.42C415.539 471.467 415.461 472.555 415.58 473.63C415.75 475.02 416.44 476.24 416.7 477.63C417.36 481.11 413.84 483.07 411.43 484.74C408.21 486.97 406.72 490.64 408.62 494.31C408.62 494.36 408.73 494.31 408.7 494.31C408.127 493.172 407.875 491.899 407.972 490.628C408.069 489.358 408.511 488.138 409.25 487.1C410.73 485.1 413.25 484.22 414.96 482.52C416.16 481.35 417.2 479.93 417.04 478.18C416.873 477.234 416.605 476.309 416.24 475.42C415.729 473.802 415.646 472.079 416 470.42Z" fill="#263238"/>
<path d="M417.92 466.89C417.87 466.89 417.86 466.96 417.92 466.97C420.92 467.72 424.09 468.41 426.27 470.84C428.62 473.45 428.85 477.33 427.59 480.5C426.17 484.05 422.8 484.75 419.59 485.91C417.19 486.6 415.018 487.919 413.3 489.73C413.25 489.79 413.35 489.87 413.41 489.82C416.28 487.07 419.92 486.25 423.5 484.82C424.854 484.328 426.042 483.463 426.927 482.326C427.812 481.188 428.357 479.824 428.5 478.39C429.49 471.58 424.06 467.73 417.92 466.89Z" fill="#263238"/>
<path d="M419.52 402.3C419.281 402.187 419.008 402.168 418.755 402.246C418.503 402.324 418.288 402.494 418.154 402.722C418.02 402.95 417.976 403.219 418.031 403.478C418.086 403.737 418.235 403.966 418.45 404.12C418.689 404.233 418.962 404.252 419.215 404.174C419.467 404.096 419.682 403.926 419.816 403.698C419.95 403.47 419.994 403.201 419.939 402.942C419.884 402.683 419.735 402.454 419.52 402.3Z" fill="#0F9BF2"/>
<path d="M420.92 403.69C420.68 403.566 420.401 403.538 420.141 403.613C419.882 403.687 419.66 403.858 419.522 404.091C419.384 404.323 419.34 404.6 419.399 404.864C419.458 405.127 419.616 405.359 419.84 405.51C420.08 405.634 420.359 405.662 420.619 405.587C420.878 405.513 421.1 405.342 421.238 405.109C421.376 404.877 421.42 404.6 421.361 404.336C421.302 404.073 421.144 403.841 420.92 403.69Z" fill="#0F9BF2"/>
<path d="M422.54 404.83C422.301 404.717 422.028 404.698 421.775 404.776C421.523 404.854 421.308 405.024 421.174 405.252C421.04 405.48 420.996 405.749 421.051 406.008C421.106 406.267 421.255 406.496 421.47 406.65C421.709 406.763 421.982 406.782 422.235 406.704C422.487 406.626 422.702 406.456 422.836 406.228C422.97 406 423.014 405.731 422.959 405.472C422.904 405.213 422.755 404.984 422.54 404.83Z" fill="#0F9BF2"/>
<path d="M424.26 405.72C424.02 405.596 423.741 405.568 423.481 405.643C423.222 405.717 423 405.888 422.862 406.121C422.724 406.353 422.68 406.63 422.739 406.894C422.798 407.157 422.956 407.389 423.18 407.54C423.42 407.664 423.699 407.692 423.959 407.617C424.218 407.543 424.44 407.372 424.578 407.139C424.716 406.907 424.76 406.63 424.701 406.366C424.642 406.103 424.484 405.871 424.26 405.72Z" fill="#0F9BF2"/>
<path d="M426.14 406.32C425.901 406.207 425.628 406.188 425.375 406.266C425.123 406.344 424.908 406.514 424.774 406.742C424.64 406.97 424.596 407.239 424.651 407.498C424.706 407.757 424.855 407.986 425.07 408.14C425.309 408.253 425.582 408.272 425.835 408.194C426.087 408.116 426.302 407.946 426.436 407.718C426.57 407.49 426.614 407.221 426.559 406.962C426.504 406.703 426.355 406.474 426.14 406.32Z" fill="#0F9BF2"/>
<path d="M428 406.56C427.76 406.436 427.481 406.408 427.221 406.483C426.962 406.557 426.74 406.728 426.602 406.961C426.464 407.193 426.42 407.47 426.479 407.734C426.538 407.997 426.696 408.229 426.92 408.38C427.16 408.504 427.439 408.532 427.699 408.457C427.958 408.383 428.18 408.212 428.318 407.979C428.456 407.747 428.5 407.47 428.441 407.206C428.382 406.943 428.224 406.711 428 406.56Z" fill="#0F9BF2"/>
<path d="M424.84 421C425.13 422.06 430.97 429 435.58 427C437.29 426.27 436.65 420.67 436.65 420.67L438.48 410.89L426 403.54C426 403.54 424.72 420.52 424.84 421Z" fill="#D3766A"/>
<path d="M425.57 409.88C426.634 412.257 428.176 414.39 430.099 416.147C432.022 417.903 434.286 419.245 436.75 420.09L438.48 410.85L426 403.54C426 403.54 425.82 406.41 425.57 409.88Z" fill="#263238"/>
<path d="M447.5 395.23C450.44 411.23 441.17 414.84 437.71 415.47C434.57 416.04 423.8 417.59 419.22 401.95C414.64 386.31 421.17 379.86 428.28 378.17C435.39 376.48 444.56 379.19 447.5 395.23Z" fill="#D3766A"/>
<path d="M442.86 393.93C442.48 393.93 442.13 393.85 441.75 393.81C441.35 393.822 440.956 393.703 440.63 393.47C440.539 393.377 440.483 393.256 440.47 393.127C440.457 392.998 440.489 392.869 440.56 392.76C440.725 392.566 440.94 392.42 441.181 392.337C441.422 392.255 441.68 392.238 441.93 392.29C442.457 392.309 442.957 392.527 443.33 392.9C443.409 392.99 443.461 393.101 443.478 393.219C443.496 393.337 443.479 393.458 443.429 393.567C443.379 393.676 443.299 393.769 443.198 393.833C443.097 393.897 442.98 393.931 442.86 393.93Z" fill="#263238"/>
<path d="M431.88 395.18C432.243 395.086 432.6 394.973 432.95 394.84C433.334 394.765 433.685 394.568 433.95 394.28C434.018 394.172 434.049 394.045 434.036 393.918C434.023 393.791 433.968 393.672 433.88 393.58C433.678 393.421 433.437 393.319 433.182 393.284C432.927 393.248 432.668 393.282 432.43 393.38C431.923 393.512 431.482 393.825 431.19 394.26C431.126 394.366 431.095 394.488 431.101 394.612C431.107 394.735 431.15 394.854 431.225 394.953C431.299 395.052 431.401 395.126 431.518 395.167C431.634 395.207 431.761 395.212 431.88 395.18Z" fill="#263238"/>
<path d="M434.61 399.05C434.61 399.05 434.53 399.11 434.53 399.15C434.71 400.25 434.72 401.54 433.77 402.03C433.77 402.03 433.77 402.1 433.77 402.09C435 401.77 435 400.06 434.61 399.05Z" fill="#263238"/>
<path d="M433.48 398C431.69 398.08 431.99 401.65 433.65 401.58C435.31 401.51 435 398 433.48 398Z" fill="#263238"/>
<path d="M432.8 398.27C432.5 398.49 432.23 398.88 431.85 398.95C431.47 399.02 431.06 398.68 430.75 398.34C430.75 398.34 430.68 398.34 430.69 398.34C430.74 399.03 431.06 399.7 431.8 399.75C432.54 399.8 432.91 399.14 433.02 398.43C433 398.35 432.91 398.17 432.8 398.27Z" fill="#263238"/>
<path d="M441.13 398.19C441.13 398.19 441.22 398.19 441.22 398.28C441.22 399.39 441.52 400.65 442.55 400.94V401.01C441.31 400.93 441 399.25 441.13 398.19Z" fill="#263238"/>
<path d="M442 397C443.77 396.73 444.18 400.29 442.54 400.54C440.9 400.79 440.55 397.18 442 397Z" fill="#263238"/>
<path d="M442.8 397.1C443.1 397.26 443.42 397.57 443.8 397.55C444.18 397.53 444.44 397.12 444.64 396.72H444.7C444.8 397.4 444.7 398.13 444.02 398.34C443.34 398.55 442.93 398 442.69 397.34C442.6 397.25 442.68 397 442.8 397.1Z" fill="#263238"/>
<path d="M435.64 408.26C435.9 408.52 436.17 408.88 436.57 408.92C436.982 408.92 437.388 408.828 437.76 408.65C437.76 408.65 437.83 408.65 437.81 408.71C437.649 408.925 437.433 409.093 437.185 409.197C436.937 409.3 436.666 409.336 436.4 409.3C436.172 409.238 435.968 409.11 435.813 408.932C435.658 408.754 435.559 408.534 435.53 408.3C435.528 408.286 435.531 408.273 435.538 408.261C435.545 408.25 435.556 408.241 435.569 408.236C435.582 408.231 435.596 408.231 435.609 408.236C435.622 408.24 435.633 408.249 435.64 408.26Z" fill="#263238"/>
<path d="M440.08 403.8C440.239 404.603 440.356 405.414 440.43 406.23C440.43 406.3 440.25 406.35 439.99 406.37C439.325 406.523 438.63 406.492 437.981 406.279C437.332 406.065 436.754 405.678 436.31 405.16C436.25 405.09 436.31 405 436.42 405.05C437.452 405.677 438.657 405.958 439.86 405.85C439.91 405.63 439.23 403.05 439.36 403.03C439.968 403.057 440.57 403.164 441.15 403.35C440.6 399.9 439.51 396.57 439.01 393.13C439.01 393.01 439.17 392.96 439.21 393.07C440.503 396.611 441.438 400.273 442 404C442 404.43 440.4 403.92 440.08 403.8Z" fill="#263238"/>
<path d="M439.76 406C439.391 406.653 438.861 407.201 438.22 407.59C437.86 407.786 437.448 407.866 437.04 407.82C436.15 407.72 436.04 406.94 436.04 406.25C436.077 405.882 436.157 405.519 436.28 405.17C437.321 405.814 438.541 406.105 439.76 406Z" fill="#263238"/>
<path d="M438.22 407.58C437.86 407.776 437.448 407.856 437.04 407.81C436.15 407.71 436.04 406.93 436.04 406.24C436.503 406.173 436.974 406.271 437.372 406.516C437.771 406.761 438.071 407.137 438.22 407.58Z" fill="#FF9ABB"/>
<path d="M435.64 382.31C436.011 383.715 435.952 385.199 435.47 386.57C433.76 390.26 429.34 389.32 427.85 390.79C426.36 392.26 426.97 394.98 425.7 396.35C423.95 398.25 421.53 397.53 421.25 398.81C420.97 400.09 421.19 402.81 419.59 403.3C417.99 403.79 409.7 378.11 431.27 377.69C433.509 377.515 435.761 377.759 437.91 378.41C444.06 380.15 446.35 390.52 446.35 390.52C445.569 390.56 444.795 390.362 444.13 389.95C443.13 389.05 442.71 388.22 441.96 387.65C440.78 386.74 440.14 387.09 438.96 386.21C437.621 385.128 436.495 383.805 435.64 382.31Z" fill="#263238"/>
<path d="M435.31 381.14C435.647 382.188 435.861 383.272 435.95 384.37C436.096 385.439 435.951 386.527 435.53 387.52C434.984 388.423 434.133 389.101 433.13 389.43C432.13 389.8 431.03 389.92 429.95 390.36C429.397 390.587 428.914 390.956 428.55 391.43C428.241 391.927 428.037 392.482 427.95 393.06C427.839 394.126 427.441 395.142 426.8 396C426.449 396.395 426.015 396.708 425.53 396.917C425.044 397.126 424.518 397.226 423.99 397.21C422.93 397.21 421.76 396.93 420.72 397.41C421.79 397.02 422.88 397.41 423.98 397.47C424.554 397.512 425.13 397.427 425.668 397.222C426.205 397.016 426.691 396.694 427.09 396.28C427.824 395.394 428.283 394.313 428.41 393.17C428.495 392.655 428.682 392.162 428.96 391.72C429.272 391.323 429.687 391.018 430.16 390.84C431.16 390.42 432.24 390.28 433.29 389.84C433.831 389.64 434.337 389.356 434.79 389C435.262 388.656 435.64 388.198 435.89 387.67C436.3 386.6 436.407 385.437 436.2 384.31C436.023 383.223 435.724 382.16 435.31 381.14Z" fill="#263238"/>
<path d="M435.72 382.1C435.924 383.11 436.261 384.088 436.72 385.01C437.188 385.975 437.928 386.782 438.85 387.33C439.318 387.56 439.807 387.745 440.31 387.88C440.757 388.021 441.155 388.284 441.46 388.64C441.723 389.084 442.031 389.499 442.38 389.88C442.764 390.238 443.226 390.501 443.73 390.65C443.283 390.419 442.889 390.099 442.57 389.71C442.27 389.302 442.009 388.867 441.79 388.41C441.468 387.949 441.01 387.599 440.48 387.41C440.008 387.269 439.549 387.084 439.11 386.86C438.276 386.354 437.587 385.641 437.11 384.79C436.588 383.925 436.124 383.026 435.72 382.1Z" fill="#263238"/>
<path d="M422.47 402C422.47 402 418.21 397.48 416.11 399.08C414.01 400.68 417.74 407.58 420.57 408.18C420.927 408.282 421.301 408.311 421.67 408.265C422.039 408.219 422.395 408.099 422.716 407.912C423.037 407.726 423.317 407.476 423.54 407.178C423.762 406.881 423.922 406.541 424.01 406.18L422.47 402Z" fill="#D3766A"/>
<path d="M417.23 401.06C417.18 401.06 417.23 401.12 417.23 401.13C419.23 401.62 420.48 403.21 421.44 404.92C421.302 404.748 421.129 404.608 420.932 404.509C420.735 404.41 420.519 404.355 420.298 404.347C420.078 404.34 419.859 404.38 419.655 404.465C419.452 404.55 419.269 404.678 419.12 404.84C419.12 404.84 419.12 404.95 419.19 404.93C419.505 404.777 419.86 404.725 420.206 404.782C420.552 404.84 420.871 405.003 421.12 405.25C421.541 405.659 421.913 406.116 422.23 406.61C422.34 406.76 422.63 406.61 422.54 406.44C422.2 404 419.84 400.92 417.23 401.06Z" fill="#263238"/>
<path d="M443.12 426.3L432.69 454.13C432.29 454.94 432.63 455.67 433.46 455.76L448.23 457.42C448.685 457.436 449.136 457.323 449.53 457.095C449.924 456.867 450.247 456.532 450.46 456.13L460.89 428.3C461.009 428.154 461.084 427.977 461.106 427.79C461.129 427.603 461.098 427.413 461.018 427.243C460.937 427.073 460.81 426.928 460.651 426.827C460.493 426.726 460.308 426.671 460.12 426.67L445.34 425C444.885 424.985 444.435 425.099 444.042 425.329C443.649 425.559 443.329 425.896 443.12 426.3Z" fill="#37474F"/>
<path d="M444.87 426.49L434.44 454.31C434.321 454.456 434.246 454.633 434.224 454.82C434.201 455.007 434.232 455.197 434.312 455.367C434.393 455.537 434.52 455.682 434.679 455.783C434.837 455.884 435.022 455.939 435.21 455.94L450 457.6C450.454 457.616 450.903 457.503 451.296 457.275C451.689 457.047 452.009 456.712 452.22 456.31L462.65 428.48C463.05 427.67 462.71 426.94 461.88 426.85L447.1 425.19C446.644 425.174 446.192 425.288 445.797 425.518C445.403 425.748 445.081 426.085 444.87 426.49Z" fill="#455A64"/>
<path d="M448.78 428.25C448.748 428.499 448.643 428.734 448.477 428.923C448.312 429.113 448.094 429.249 447.851 429.315C447.608 429.38 447.352 429.372 447.113 429.292C446.875 429.211 446.666 429.061 446.513 428.862C446.36 428.662 446.269 428.422 446.253 428.171C446.237 427.92 446.295 427.67 446.421 427.452C446.547 427.234 446.735 427.059 446.961 426.948C447.187 426.838 447.441 426.796 447.69 426.83C447.855 426.851 448.014 426.904 448.159 426.987C448.303 427.07 448.43 427.181 448.531 427.313C448.632 427.445 448.707 427.596 448.749 427.756C448.792 427.917 448.802 428.085 448.78 428.25Z" fill="#263238"/>
<path d="M390.72 494.88C397.25 495.19 404.84 489.44 424.33 472.33C427.02 469.97 415.43 446.45 412.42 448.83C408.63 451.83 394.57 464.28 393.66 465.32C386 474.1 386.29 494.67 390.72 494.88Z" fill="#D3766A"/>
<path d="M405.64 456.87C405.64 456.87 410.83 448 414.99 444.18C419.427 440.324 424.731 437.6 430.45 436.24C436.62 434.76 452.56 435.43 453.17 440.06C453.72 444.24 437.46 442.73 437.46 442.73C437.46 442.73 454.29 441.54 454.02 446.73C453.75 451.92 435 449 435 449C435 449 452.32 448.16 451.2 453.44C450.36 457.44 433.2 455.83 433.2 455.83C433.2 455.83 448.09 455.21 447.4 459.35C446.64 463.93 430.72 463.44 430.72 463.44C427.19 473.67 421.33 477.1 416.86 479.04C415.78 479.54 405.64 456.87 405.64 456.87Z" fill="#D3766A"/>
<path d="M431.61 442.77C433.61 442.56 435.61 442.33 437.56 442.29C439.51 442.25 441.56 442.29 443.51 442.44C446.097 442.591 448.66 443.03 451.15 443.75C446.64 442.75 439.54 442.8 437.55 442.84C435.56 442.88 433.55 442.84 431.61 442.84V442.77Z" fill="#263238"/>
<path d="M431.61 449.94C434.14 449.78 436.61 449.52 439.18 449.47C441.75 449.42 444.11 449.6 446.63 449.72C446.82 449.72 446.76 449.83 446.56 449.83C444.04 449.83 441.7 449.98 439.17 449.99C436.64 450 434.12 449.9 431.61 449.99V449.94Z" fill="#263238"/>
<path d="M430.5 456.09C434.376 455.747 438.276 455.803 442.14 456.26C442.33 456.26 442.23 456.4 442.03 456.4C438.16 456.26 435.13 456.13 430.52 456.22C430.45 456.22 430.42 456.1 430.5 456.09Z" fill="#263238"/>
<path d="M387.85 480.81C388.083 476.127 389.423 471.565 391.76 467.5C396.19 461.72 403.23 456.44 408.64 451.55C410.277 448.654 412.386 446.051 414.88 443.85C417.37 441.595 420.293 439.871 423.47 438.78C420.4 440.052 417.592 441.883 415.19 444.18C412.767 446.485 410.704 449.142 409.07 452.06C403.75 456.98 396.76 462.23 392.22 467.83C389.844 471.798 388.353 476.232 387.85 480.83V480.81Z" fill="#263238"/>
<path d="M363.68 370C364.115 374.169 365.7 378.134 368.258 381.454C370.816 384.774 374.246 387.318 378.166 388.801C382.086 390.285 386.341 390.649 390.456 389.854C394.571 389.06 398.384 387.137 401.47 384.3L412.78 386L407.12 376.22C408.539 372.777 409.075 369.033 408.68 365.33C408.055 359.363 405.086 353.888 400.425 350.11C395.763 346.332 389.792 344.56 383.825 345.185C377.858 345.81 372.383 348.779 368.605 353.44C364.827 358.102 363.055 364.073 363.68 370.04V370Z" fill="white"/>
<path d="M370.45 351.31C374.21 347.647 379.117 345.392 384.345 344.922C389.573 344.453 394.803 345.799 399.155 348.733C403.507 351.668 406.716 356.011 408.241 361.034C409.767 366.056 409.515 371.451 407.53 376.31V375.92L413.16 385.72L413.58 386.45L412.76 386.32L401.45 384.58L401.72 384.5C398.577 387.348 394.702 389.263 390.53 390.03C389.497 390.222 388.45 390.329 387.4 390.35C386.353 390.405 385.304 390.385 384.26 390.29C382.173 390.091 380.123 389.603 378.17 388.84C376.218 388.102 374.38 387.092 372.71 385.84C371.872 385.228 371.077 384.56 370.33 383.84C369.596 383.099 368.911 382.31 368.28 381.48C364.889 377.06 363.24 371.548 363.646 365.991C364.051 360.435 366.483 355.221 370.48 351.34L370.45 351.31ZM368.31 381.4C369.561 383.064 371.062 384.525 372.76 385.73C374.422 386.972 376.259 387.963 378.21 388.67C380.155 389.391 382.192 389.838 384.26 390C385.289 390.07 386.321 390.07 387.35 390C388.382 389.954 389.408 389.826 390.42 389.62C394.48 388.806 398.231 386.874 401.25 384.04L401.36 383.94H401.52L412.84 385.53L412.44 386.12L406.74 376.36L406.64 376.18L406.72 375.97C407.974 372.845 408.517 369.481 408.31 366.12C408.087 362.754 407.106 359.483 405.44 356.55C403.745 353.628 401.435 351.11 398.67 349.17C395.879 347.243 392.684 345.981 389.33 345.48C384.899 344.799 380.366 345.465 376.318 347.392C372.271 349.319 368.896 352.419 366.632 356.288C364.368 360.157 363.32 364.617 363.622 369.09C363.925 373.563 365.565 377.841 368.33 381.37L368.31 381.4Z" fill="#263238"/>
<path d="M383.69 380.53L374.02 370.75L377.27 367.55L382.91 373.26L394.64 354.88L398.48 357.33L383.69 380.53Z" fill="#0F9BF2"/>
<path d="M309.16 722.56H201.38L217.1 612.77H293.45L309.16 722.56Z" fill="#37474F"/>
<path d="M293.44 612.77L281.47 722.56H309.16L293.44 612.77Z" fill="#455A64"/>
<path d="M238.6 620.34L235.23 619.63C235.23 619.53 237.23 610.31 239.29 601C241.55 590.94 251.45 586.31 259.72 587.64C265.91 588.64 272.77 593.47 271.72 603.79C270.61 614.79 269.72 620.04 269.72 620.26L266.32 619.71C266.32 619.71 267.18 614.37 268.27 603.45C269.06 595.52 264.07 591.84 259.13 591.04C252.44 589.96 244.43 593.67 242.61 601.75C240.57 611 238.62 620.25 238.6 620.34Z" fill="#263238"/>
<path d="M282.93 721.72C285.14 720.14 287.44 718.72 289.73 717.25C292.02 715.78 294.36 714.45 296.73 713.11L297.05 712.92L297.35 713.14C299.17 714.51 300.99 715.88 302.76 717.32C304.53 718.76 306.31 720.18 308.01 721.71C306.01 720.53 304.15 719.27 302.27 717.98C300.39 716.69 298.52 715.39 296.68 714.05H297.29C294.96 715.42 292.59 716.74 290.21 718.05C287.83 719.36 285.4 720.59 282.93 721.72Z" fill="white"/>
<path d="M297 713.6C296.53 706.6 296.18 699.6 295.85 692.6C295.52 685.6 295.28 678.6 295 671.6C294.72 664.6 294.56 657.6 294.41 650.6L294.22 640C294.22 636.5 294.13 633 294.14 629.48C294.39 632.98 294.56 636.48 294.78 639.98L295.3 650.49C295.63 657.49 295.86 664.49 296.14 671.49C296.42 678.49 296.58 685.49 296.72 692.49C296.86 699.49 297 706.58 297 713.6Z" fill="white"/>
<path d="M241.49 620C241.492 620.907 241.225 621.794 240.722 622.548C240.22 623.303 239.505 623.892 238.667 624.239C237.83 624.587 236.908 624.679 236.019 624.502C235.13 624.326 234.313 623.89 233.671 623.249C233.03 622.607 232.594 621.79 232.418 620.901C232.241 620.012 232.333 619.09 232.681 618.253C233.028 617.415 233.617 616.7 234.372 616.198C235.126 615.695 236.013 615.428 236.92 615.43C238.131 615.433 239.292 615.915 240.149 616.771C241.005 617.628 241.487 618.789 241.49 620Z" fill="#263238"/>
<path d="M272.28 620C272.282 620.907 272.015 621.794 271.512 622.548C271.01 623.303 270.295 623.892 269.457 624.239C268.62 624.587 267.698 624.679 266.809 624.502C265.92 624.326 265.103 623.89 264.461 623.249C263.82 622.607 263.384 621.79 263.208 620.901C263.031 620.012 263.123 619.09 263.471 618.253C263.818 617.415 264.407 616.7 265.162 616.198C265.916 615.695 266.803 615.428 267.71 615.43C268.921 615.433 270.082 615.915 270.939 616.771C271.795 617.628 272.277 618.789 272.28 620Z" fill="#263238"/>
<path d="M253.96 722.56H160.21L173.88 627.06H240.29L253.96 722.56Z" fill="#0F9BF2"/>
<path d="M240.29 627.06L229.87 722.56H253.96L240.29 627.06Z" fill="#0F9BF2"/>
<path opacity="0.1" d="M240.29 627.06L229.87 722.56H253.96L240.29 627.06Z" fill="black"/>
<path d="M192.59 633.65L189.65 633.03C189.65 632.95 191.37 624.92 193.19 616.83C195.19 608.07 203.76 604.05 210.95 605.21C216.34 606.08 222.31 610.28 221.41 619.21C220.41 628.82 219.71 633.35 219.68 633.54L216.68 633.06C216.68 633.01 217.42 628.42 218.38 618.92C219.07 612.02 214.72 608.82 210.38 608.12C204.57 607.18 197.6 610.41 196.02 617.44C194.3 625.56 192.6 633.57 192.59 633.65Z" fill="#263238"/>
<path d="M231.14 721.83C233.07 720.46 235.06 719.2 237.06 717.95C239.06 716.7 241.06 715.5 243.14 714.34L243.42 714.18L243.67 714.37C245.26 715.56 246.84 716.75 248.38 718C249.92 719.25 251.47 720.49 252.95 721.82C251.25 720.82 249.59 719.7 247.95 718.58C246.31 717.46 244.69 716.32 243.09 715.16H243.63C241.63 716.35 239.54 717.5 237.46 718.62C235.38 719.74 233.29 720.85 231.14 721.83Z" fill="white"/>
<path d="M243.38 714.76C242.97 708.67 242.66 702.58 242.38 696.49C242.1 690.4 241.89 684.3 241.64 678.2C241.39 672.1 241.26 666.01 241.13 659.91L240.96 650.76C240.96 647.71 240.88 644.66 240.89 641.61C241.11 644.61 241.26 647.7 241.45 650.74L241.9 659.88C242.19 665.98 242.39 672.07 242.64 678.17C242.89 684.27 243.02 690.36 243.14 696.46C243.26 702.56 243.38 708.66 243.38 714.76Z" fill="white"/>
<path d="M195.1 633.34C195.1 634.131 194.865 634.904 194.426 635.562C193.986 636.22 193.362 636.733 192.631 637.036C191.9 637.338 191.096 637.417 190.32 637.263C189.544 637.109 188.831 636.728 188.272 636.168C187.712 635.609 187.331 634.896 187.177 634.12C187.023 633.344 187.102 632.54 187.405 631.809C187.707 631.078 188.22 630.454 188.878 630.014C189.536 629.575 190.309 629.34 191.1 629.34C192.161 629.34 193.178 629.761 193.928 630.512C194.679 631.262 195.1 632.279 195.1 633.34Z" fill="#263238"/>
<path d="M221.88 633.34C221.88 634.131 221.645 634.904 221.206 635.562C220.766 636.22 220.142 636.733 219.411 637.036C218.68 637.338 217.876 637.417 217.1 637.263C216.324 637.109 215.611 636.728 215.052 636.168C214.492 635.609 214.111 634.896 213.957 634.12C213.803 633.344 213.882 632.54 214.185 631.809C214.487 631.078 215 630.454 215.658 630.014C216.316 629.575 217.089 629.34 217.88 629.34C218.941 629.34 219.958 629.761 220.708 630.512C221.459 631.262 221.88 632.279 221.88 633.34Z" fill="#263238"/>
</svg>
